<svg width="64" height="64" viewBox="0 0 64 64" fill="none" xmlns="http://www.w3.org/2000/svg">
<rect width="64" height="64" rx="32" fill="#F2994A" fill-opacity="0.2"/>
<path d="M32.0434 41.4589C28.6497 41.4589 25.8906 38.6999 25.8906 35.3061C25.8906 31.9124 28.6497 29.1533 32.0434 29.1533C35.4372 29.1533 38.1962 31.9124 38.1962 35.3061C38.1962 38.6999 35.4372 41.4589 32.0434 41.4589ZM32.0434 31.0963C29.7248 31.0963 27.8336 32.9875 27.8336 35.3061C27.8336 37.6248 29.7248 39.5159 32.0434 39.5159C34.3621 39.5159 36.2533 37.6248 36.2533 35.3061C36.2533 32.9875 34.3621 31.0963 32.0434 31.0963Z" fill="#F39C12"/>
<path d="M31.3222 37.4178C30.9077 37.4178 30.4932 37.2624 30.1823 36.9515L29.3403 36.1095C28.9647 35.7339 28.9647 35.1121 29.3403 34.7365C29.716 34.3608 30.3377 34.3608 30.7134 34.7365L31.3351 35.3582L33.4206 33.4412C33.8092 33.0785 34.431 33.1044 34.7937 33.493C35.1564 33.8816 35.1304 34.5033 34.7418 34.866L32.4362 36.9904C32.1123 37.2753 31.7237 37.4178 31.3222 37.4178Z" fill="#F39C12"/>
<path d="M37.2187 46.3828H26.8561C20.8716 46.3828 19.7577 43.5979 19.4727 40.8906L18.5012 30.5151C18.3587 29.155 18.3198 27.1472 19.667 25.6446C20.8328 24.3493 22.7628 23.7275 25.5607 23.7275H38.514C41.3249 23.7275 43.2549 24.3622 44.4078 25.6446C45.7549 27.1472 45.716 29.155 45.5736 30.528L44.6021 40.8777C44.3171 43.5979 43.2031 46.3828 37.2187 46.3828ZM25.5607 25.6576C23.3716 25.6576 21.869 26.085 21.1048 26.94C20.4701 27.6394 20.2628 28.7146 20.4312 30.3208L21.4027 40.6963C21.6229 42.743 22.1799 44.4398 26.8561 44.4398H37.2187C41.8819 44.4398 42.4518 42.743 42.672 40.6834L43.6435 30.3337C43.8119 28.7146 43.6047 27.6394 42.9699 26.94C42.2057 26.085 40.7031 25.6576 38.514 25.6576H25.5607Z" fill="#F39C12"/>
<path d="M37.2247 25.6546C36.6937 25.6546 36.2533 25.2142 36.2533 24.6831V23.6468C36.2533 21.3411 36.2533 20.4733 33.0797 20.4733H31.0072C27.8336 20.4733 27.8336 21.3411 27.8336 23.6468V24.6831C27.8336 25.2142 27.3932 25.6546 26.8621 25.6546C26.331 25.6546 25.8906 25.2142 25.8906 24.6831V23.6468C25.8906 21.367 25.8906 18.5303 31.0072 18.5303H33.0797C38.1962 18.5303 38.1962 21.367 38.1962 23.6468V24.6831C38.1962 25.2142 37.7558 25.6546 37.2247 25.6546Z" fill="#F39C12"/>
<path d="M37.2445 35.5515C36.8041 35.5515 36.4155 35.2535 36.2989 34.8131C36.1694 34.295 36.4802 33.7639 36.9984 33.6344C39.5243 32.9997 41.8688 31.8986 43.9672 30.3702C44.3947 30.0593 45.0035 30.15 45.3273 30.5904C45.6382 31.0178 45.5475 31.6266 45.1071 31.9505C42.8014 33.6214 40.2367 34.8261 37.4647 35.5256C37.3999 35.5385 37.3222 35.5515 37.2445 35.5515Z" fill="#F39C12"/>
<path d="M26.8602 35.5907C26.7824 35.5907 26.7047 35.5778 26.627 35.5648C24.0234 34.9301 21.5752 33.8291 19.3343 32.3006C18.8939 32.0027 18.7773 31.3939 19.0752 30.9534C19.3732 30.513 19.982 30.3964 20.4224 30.6944C22.469 32.0933 24.697 33.0907 27.0804 33.6736C27.5985 33.8032 27.9223 34.3213 27.7928 34.8524C27.7021 35.2928 27.3006 35.5907 26.8602 35.5907Z" fill="#F39C12"/>
</svg>
