<svg width="65" height="64" viewBox="0 0 65 64" fill="none" xmlns="http://www.w3.org/2000/svg">
<rect x="0.667969" width="64" height="64" rx="32" fill="#F2994A" fill-opacity="0.2"/>
<path d="M32.6536 41.2663C29.1603 41.2663 26.3203 38.4263 26.3203 34.9329C26.3203 31.4396 29.1603 28.5996 32.6536 28.5996C36.147 28.5996 38.987 31.4396 38.987 34.9329C38.987 38.4263 36.147 41.2663 32.6536 41.2663ZM32.6536 30.5996C30.267 30.5996 28.3203 32.5463 28.3203 34.9329C28.3203 37.3196 30.267 39.2663 32.6536 39.2663C35.0403 39.2663 36.987 37.3196 36.987 34.9329C36.987 32.5463 35.0403 30.5996 32.6536 30.5996Z" fill="#F2994A"/>
<path d="M31.3149 37.266C30.9816 37.266 30.6483 37.0926 30.4616 36.786C30.1816 36.306 30.3283 35.6926 30.8083 35.4126L31.8216 34.7993C31.9283 34.746 31.9816 34.626 31.9816 34.5193V33.2793C31.9816 32.7326 32.4349 32.2793 32.9816 32.2793C33.5283 32.2793 33.9816 32.7193 33.9816 33.266V34.506C33.9816 35.3193 33.5416 36.0926 32.8483 36.506L31.8349 37.1193C31.6749 37.226 31.4883 37.266 31.3149 37.266Z" fill="#F2994A"/>
<path d="M37.9808 46.3356H27.3141C21.1541 46.3356 20.0074 43.469 19.7141 40.6823L18.7141 30.0023C18.5674 28.6023 18.5274 26.5356 19.9141 24.989C21.1141 23.6556 23.1008 23.0156 25.9808 23.0156H39.3141C42.2074 23.0156 44.1941 23.669 45.3808 24.989C46.7674 26.5356 46.7274 28.6023 46.5808 30.0156L45.5808 40.669C45.2874 43.469 44.1408 46.3356 37.9808 46.3356ZM25.9808 25.0023C23.7274 25.0023 22.1808 25.4423 21.3941 26.3223C20.7408 27.0423 20.5274 28.149 20.7008 29.8023L21.7008 40.4823C21.9274 42.589 22.5008 44.3356 27.3141 44.3356H37.9808C42.7808 44.3356 43.3674 42.589 43.5941 40.469L44.5941 29.8156C44.7674 28.149 44.5541 27.0423 43.9008 26.3223C43.1141 25.4423 41.5674 25.0023 39.3141 25.0023H25.9808Z" fill="#F2994A"/>
<path d="M37.987 24.9993C37.4403 24.9993 36.987 24.546 36.987 23.9993V22.9327C36.987 20.5593 36.987 19.666 33.7203 19.666H31.587C28.3203 19.666 28.3203 20.5593 28.3203 22.9327V23.9993C28.3203 24.546 27.867 24.9993 27.3203 24.9993C26.7736 24.9993 26.3203 24.546 26.3203 23.9993V22.9327C26.3203 20.586 26.3203 17.666 31.587 17.666H33.7203C38.987 17.666 38.987 20.586 38.987 22.9327V23.9993C38.987 24.546 38.5336 24.9993 37.987 24.9993Z" fill="#F2994A"/>
<path d="M38.0036 35.1864C37.5502 35.1864 37.1502 34.8798 37.0302 34.4264C36.8969 33.8931 37.2169 33.3464 37.7502 33.2131C40.3502 32.5598 42.7636 31.4264 44.9236 29.8531C45.3636 29.5331 45.9902 29.6264 46.3236 30.0798C46.6436 30.5198 46.5502 31.1464 46.0969 31.4798C43.7236 33.1997 41.0836 34.4398 38.2302 35.1598C38.1636 35.1731 38.0836 35.1864 38.0036 35.1864Z" fill="#F2994A"/>
<path d="M27.3161 35.2265C27.2361 35.2265 27.1561 35.2132 27.0761 35.1999C24.3961 34.5465 21.8761 33.4132 19.5694 31.8399C19.1161 31.5332 18.9961 30.9065 19.3027 30.4532C19.6094 29.9999 20.2361 29.8799 20.6894 30.1865C22.7961 31.6265 25.0894 32.6532 27.5427 33.2532C28.0761 33.3865 28.4094 33.9199 28.2761 34.4665C28.1827 34.9199 27.7694 35.2265 27.3161 35.2265Z" fill="#F2994A"/>
</svg>
