<svg width="65" height="64" viewBox="0 0 65 64" fill="none" xmlns="http://www.w3.org/2000/svg">
<rect x="0.332031" width="64" height="64" rx="32" fill="#F2994A" fill-opacity="0.2"/>
<path d="M32.3177 41.2663C28.8244 41.2663 25.9844 38.4263 25.9844 34.9329C25.9844 31.4396 28.8244 28.5996 32.3177 28.5996C35.811 28.5996 38.651 31.4396 38.651 34.9329C38.651 38.4263 35.811 41.2663 32.3177 41.2663ZM32.3177 30.5996C29.931 30.5996 27.9844 32.5463 27.9844 34.9329C27.9844 37.3196 29.931 39.2663 32.3177 39.2663C34.7044 39.2663 36.651 37.3196 36.651 34.9329C36.651 32.5463 34.7044 30.5996 32.3177 30.5996Z" fill="#F2994A"/>
<path d="M33.7397 37.4155C33.4864 37.4155 33.233 37.3221 33.033 37.1221L30.2197 34.3088C29.833 33.9221 29.833 33.2821 30.2197 32.8955C30.6064 32.5088 31.2464 32.5088 31.633 32.8955L34.4464 35.7088C34.833 36.0955 34.833 36.7355 34.4464 37.1221C34.2464 37.3221 33.993 37.4155 33.7397 37.4155Z" fill="#F2994A"/>
<path d="M30.8912 37.4516C30.6379 37.4516 30.3845 37.3583 30.1845 37.1583C29.7979 36.7716 29.7979 36.1316 30.1845 35.7449L32.9979 32.9316C33.3845 32.5449 34.0245 32.5449 34.4112 32.9316C34.7979 33.3183 34.7979 33.9583 34.4112 34.3449L31.5979 37.1583C31.3979 37.3449 31.1445 37.4516 30.8912 37.4516Z" fill="#F2994A"/>
<path d="M37.6448 46.3356H26.9782C20.8182 46.3356 19.6715 43.469 19.3782 40.6823L18.3782 30.0023C18.2315 28.6023 18.1915 26.5356 19.5782 24.989C20.7782 23.6556 22.7648 23.0156 25.6448 23.0156H38.9782C41.8715 23.0156 43.8582 23.669 45.0448 24.989C46.4315 26.5356 46.3915 28.6023 46.2448 30.0156L45.2448 40.669C44.9515 43.469 43.8048 46.3356 37.6448 46.3356ZM25.6448 25.0023C23.3915 25.0023 21.8448 25.4423 21.0582 26.3223C20.4048 27.0423 20.1915 28.149 20.3648 29.8023L21.3648 40.4823C21.5915 42.589 22.1648 44.3356 26.9782 44.3356H37.6448C42.4448 44.3356 43.0315 42.589 43.2582 40.469L44.2582 29.8156C44.4315 28.149 44.2182 27.0423 43.5648 26.3223C42.7782 25.4423 41.2315 25.0023 38.9782 25.0023H25.6448Z" fill="#F2994A"/>
<path d="M37.651 24.9993C37.1044 24.9993 36.651 24.546 36.651 23.9993V22.9327C36.651 20.5593 36.651 19.666 33.3844 19.666H31.251C27.9844 19.666 27.9844 20.5593 27.9844 22.9327V23.9993C27.9844 24.546 27.531 24.9993 26.9844 24.9993C26.4377 24.9993 25.9844 24.546 25.9844 23.9993V22.9327C25.9844 20.586 25.9844 17.666 31.251 17.666H33.3844C38.651 17.666 38.651 20.586 38.651 22.9327V23.9993C38.651 24.546 38.1977 24.9993 37.651 24.9993Z" fill="#F2994A"/>
<path d="M37.6676 35.1864C37.2143 35.1864 36.8143 34.8798 36.6943 34.4264C36.561 33.8931 36.881 33.3464 37.4143 33.2131C40.0143 32.5598 42.4276 31.4264 44.5876 29.8531C45.0276 29.5331 45.6676 29.6264 45.9876 30.0798C46.3076 30.5198 46.2143 31.1464 45.761 31.4798C43.3876 33.1997 40.7476 34.4398 37.8943 35.1598C37.8276 35.1731 37.7476 35.1864 37.6676 35.1864Z" fill="#F2994A"/>
<path d="M26.9801 35.2265C26.9001 35.2265 26.8201 35.2132 26.7401 35.1999C24.0601 34.5465 21.5401 33.4132 19.2335 31.8399C18.7801 31.5332 18.6601 30.9065 18.9668 30.4532C19.2735 29.9999 19.9001 29.8799 20.3535 30.1865C22.4601 31.6265 24.7535 32.6532 27.2068 33.2532C27.7401 33.3865 28.0735 33.9199 27.9401 34.4665C27.8468 34.9199 27.4335 35.2265 26.9801 35.2265Z" fill="#F2994A"/>
</svg>
