<svg width="139" height="93" viewBox="0 0 139 93" fill="none" xmlns="http://www.w3.org/2000/svg">
<g clip-path="url(#clip0_5232_81390)">
<path d="M82.1233 28.5738C82.0998 26.5141 82.1197 24.4816 83.0129 22.5348C84.8172 18.6011 87.7249 16.0842 91.9442 15.0771C96.4462 14.0026 100.298 15.3466 103.542 18.4044C105.591 20.3348 106.773 22.8444 107.162 25.7218C107.378 27.3154 107.222 28.8415 106.946 30.3877C106.562 32.1907 105.771 33.7987 104.62 35.2265C102.209 38.2187 99.1437 39.896 95.2596 40.0508C91.4605 40.202 88.2086 38.9399 85.5836 36.2446C83.5364 34.143 82.3262 31.5642 82.1233 28.5738ZM89.9261 27.5813C89.85 28.5793 89.9388 29.8177 90.1308 31.0415C90.3138 32.2016 90.542 33.369 91.3645 34.2959C92.6091 35.7019 94.207 35.8585 95.9136 35.5598C97.7578 35.2357 98.5694 33.8607 98.9517 32.238C99.7252 28.9617 99.6763 25.6508 98.9263 22.3764C98.4861 20.455 96.8828 19.2075 94.9715 19.1165C92.8392 19.0145 91.3355 19.9578 90.6145 21.8992C89.9623 23.653 89.8989 25.4924 89.9261 27.5831V27.5813Z" fill="#CCCCCC"/>
<path d="M80.1469 2.35562C73.2808 2.92383 66.4853 3.75064 60.3638 7.66616C61.4 8.29993 62.4417 8.34546 63.3928 8.66598C67.0107 9.88071 70.5488 11.2539 73.5996 13.6396C75.1286 14.8361 76.5218 16.1892 77.4004 17.9394C78.2736 19.6768 77.5961 22.0061 75.2899 22.3739C72.7608 22.7782 70.268 22.4905 67.7806 21.9824C65.9183 21.6018 64.112 21.0481 62.3656 20.3178C60.5304 19.5511 58.7496 18.6296 57.3111 17.2237C55.8093 15.7576 55.6299 13.8836 56.0086 11.9168C56.206 10.8878 56.6916 9.97541 57.3528 9.18684C57.8148 8.63502 57.5738 8.44198 57.0521 8.36731C55.9832 8.21615 54.9125 8.05771 53.8364 7.99761C49.6117 7.7645 45.4105 8.13056 41.2781 8.95009C36.7418 9.84975 32.2942 11.0954 28.0948 13.1515C25.3212 14.5083 22.6889 16.0417 20.37 18.0906C17.7304 20.4198 15.7539 23.2299 14.4296 26.4989C14.1035 27.3039 13.7502 28.0943 13.5999 28.9666C13.5328 29.3581 13.3118 29.8972 12.7919 29.757C12.3299 29.6313 12.4458 29.1669 12.5509 28.7553C13.3716 25.5737 14.8716 22.7491 16.8681 20.1612C18.0239 18.6642 19.379 17.353 20.8555 16.2311C23.3682 14.3189 26.0929 12.7254 29.0169 11.4906C33.6004 9.55472 38.3777 8.30357 43.2655 7.49679C46.8344 6.90855 50.4505 6.73918 54.0611 6.94133C55.398 7.016 56.7568 7.08521 58.0757 7.41666C58.4217 7.50408 58.7641 7.48222 59.0992 7.2309C62.8004 4.45361 67.0795 3.15694 71.547 2.34105C72.1883 2.2245 72.8442 2.13344 73.4402 1.83112C76.8569 1.55977 80.2719 1.11358 83.7049 1.29023C86.4007 1.42864 89.0928 1.5707 91.7831 1.92036C94.8828 2.32466 97.9644 2.82002 101.008 3.49203C104.82 4.33341 108.619 5.25493 112.343 6.44597C112.831 6.60259 113.322 6.74465 113.813 6.8867C114.182 6.99233 114.57 7.16534 114.476 7.59878C114.36 8.12874 113.858 8.03404 113.497 7.93569C111.994 7.52411 110.514 7.02693 109.005 6.63902C106.097 5.89234 103.189 5.14384 100.26 4.4955C96.3321 3.6268 92.37 2.96571 88.3482 2.67068C85.6144 2.47035 82.8843 2.2937 80.1433 2.35198L80.1469 2.35562ZM72.788 21.4743C73.3315 21.4743 73.8768 21.498 74.4185 21.467C74.9855 21.436 75.558 21.3814 76.02 20.9771C76.8606 20.2395 76.9203 19.0958 76.183 17.9303C74.6649 15.5318 72.4547 13.9237 70.0452 12.5724C67.3494 11.0608 64.4526 10.0555 61.4852 9.22326C59.1137 8.55671 58.9253 8.56582 57.6354 10.7002C56.3727 12.7891 56.7133 15.7012 58.9507 17.1982C63.1519 20.0082 67.7933 21.3013 72.7898 21.4725L72.788 21.4743Z" fill="#CCCCCC"/>
<path d="M119.887 10.5038C119.427 10.3562 118.57 10.3854 119.024 9.42016C119.075 9.31271 118.91 9.09235 118.827 8.93391C118.32 7.95776 118.602 7.13641 119.687 6.97251C120.742 6.81406 121.073 6.53725 120.767 5.40083C120.405 4.05681 120.537 2.65268 121.148 1.35601C121.466 0.678533 121.921 0.0247322 122.727 0.0393015C123.581 0.0556921 124.108 0.696745 124.474 1.4325C124.581 1.6474 124.662 1.87686 124.74 2.10633C124.892 2.55252 125.16 2.55434 125.497 2.32305C125.597 2.25567 125.691 2.17918 125.794 2.11726C126.503 1.70385 127.255 1.62372 127.918 2.11908C128.537 2.58166 128.561 3.31559 128.439 4.02585C128.16 5.6649 127.331 7.00347 126.104 8.08706C125.633 8.50229 125.506 8.6753 126.235 8.91388C127.197 9.23076 127.16 9.80807 126.593 10.6149C125.691 11.8988 124.457 11.7021 123.269 11.5855C122.34 11.4945 120.314 10.6403 119.887 10.5019V10.5038Z" fill="#CCCCCC"/>
<path d="M37.3926 28.7528C37.4034 28.1136 37.7386 27.8441 38.3618 27.8477C40.0086 27.8568 41.6572 27.855 43.304 27.8477C43.8167 27.8459 44.1808 28.0116 44.2714 28.5652C44.2659 29.2172 43.9145 29.4558 43.2949 29.4722C41.5829 29.5177 39.8691 29.3611 38.1553 29.5578C37.7024 29.6088 37.3672 29.2937 37.3944 28.7546L37.3926 28.7528Z" fill="#CCCCCC"/>
<path d="M23.6042 81.0772C23.6042 81.7729 23.635 82.4704 23.5951 83.1642C23.5625 83.7343 23.3143 84.1495 22.6332 84.0894C21.9882 84.0329 21.8668 83.5704 21.8596 83.0641C21.8397 81.7729 21.8614 80.4798 21.8451 79.1886C21.836 78.5603 21.9918 78.105 22.7219 78.0977C23.4502 78.0905 23.6296 78.5403 23.6133 79.1704C23.5988 79.806 23.6096 80.4398 23.6096 81.0754H23.6042V81.0772Z" fill="#CCCCCC"/>
<path d="M107.566 86.2762C107.189 86.2853 106.908 86.2307 106.827 85.9138C106.727 85.5241 106.687 85.0797 107.087 84.8466C108.361 84.0981 109.546 83.2403 110.64 82.2387C110.935 81.9691 111.483 81.9837 111.819 82.2824C112.165 82.5883 112.084 83.0819 111.81 83.355C110.62 84.5479 109.365 85.6679 107.747 86.2635C107.665 86.2926 107.568 86.278 107.566 86.278V86.2762Z" fill="#CCCCCC"/>
<path d="M21.8485 88.5981C21.805 88.2338 21.8883 87.8259 22.0314 87.4234C22.1764 87.0155 22.5115 87.0392 22.8467 87.0282C23.1909 87.0155 23.3847 87.1393 23.5007 87.4926C23.6637 88.0007 23.6384 88.5161 23.5949 89.0151C23.5152 89.9202 23.7851 90.6742 24.3757 91.3298C24.7109 91.7014 24.8902 92.0656 24.4572 92.4954C23.9681 92.9798 23.5423 92.774 23.1275 92.3952C22.3086 91.6485 21.8539 90.3154 21.8503 88.5963L21.8485 88.5981Z" fill="#CCCCCC"/>
<path d="M41.3618 87.3402C41.3854 88.0432 40.927 88.2927 40.4324 88.2417C39.1552 88.1051 38.09 88.6041 37.0175 89.176C36.4758 89.4655 35.9178 89.5493 35.5827 88.8372C35.2095 88.045 35.8037 87.8538 36.3309 87.597C37.5773 86.9887 38.8744 86.5972 40.2676 86.5262C40.9415 86.4916 41.3654 86.7884 41.36 87.342L41.3618 87.3402Z" fill="#CCCCCC"/>
<path d="M32.1114 89.4589C32.5226 89.5153 32.8197 89.7338 32.9538 90.1509C33.1295 90.6991 32.7328 90.9577 32.3686 91.1289C31.3414 91.6133 30.2852 92.0376 29.2399 92.4856C28.9663 92.604 28.6711 92.686 28.4192 92.8408C27.9536 93.1267 27.5714 93.012 27.3703 92.5658C27.1837 92.1505 27.1203 91.6424 27.6656 91.3966C29.0805 90.7555 30.5062 90.1436 31.9284 89.5208C31.9827 89.4971 32.0407 89.4825 32.1132 89.457L32.1114 89.4589Z" fill="#CCCCCC"/>
<path d="M115.825 74.4492C116.441 74.6259 116.601 75.0338 116.418 75.6184C116.275 76.0755 116.133 76.5345 115.99 76.9916C115.59 77.8548 115.193 78.718 114.791 79.5795C114.534 80.1295 114.133 80.3334 113.55 80.073C112.907 79.7853 113.094 79.3117 113.296 78.8601C113.856 77.6053 114.543 76.407 114.807 75.0265C114.896 74.5621 115.385 74.4674 115.825 74.4492Z" fill="#CCCCCC"/>
<path d="M99.1853 86.4955C100.466 87.0145 101.763 86.2187 103.109 86.2897C103.624 86.317 104.124 86.3334 104.189 86.9708C104.252 87.5955 103.776 87.8049 103.278 87.8832C101.886 88.0981 100.492 88.3604 99.0766 88.2347C98.5966 88.1928 97.9915 88.0963 98.0984 87.3369C98.1799 86.7668 98.544 86.51 99.1853 86.4973V86.4955Z" fill="#CCCCCC"/>
<path d="M23.814 39.1287C23.2017 38.7517 23.1763 38.3128 23.5078 37.6772C24.1383 36.4752 24.7651 35.2805 25.6764 34.2643C25.9916 33.9128 26.3612 33.6761 26.8503 33.6797C27.4898 34.4446 27.2217 34.9983 26.6347 35.7304C26.017 36.5025 25.4499 37.3694 25.0423 38.311C24.8249 38.81 24.4716 39.2361 23.8122 39.1305L23.814 39.1287Z" fill="#CCCCCC"/>
<path d="M74.2648 88.2636C73.5401 88.2636 72.8155 88.2891 72.0926 88.2545C71.5473 88.229 71.0147 88.056 71.1289 87.3512C71.2212 86.783 71.5528 86.559 72.2195 86.6081C73.5691 86.7083 74.9315 86.6646 76.2884 86.6428C76.8826 86.6336 77.2268 86.8449 77.2196 87.4586C77.2123 88.0851 76.8156 88.2763 76.254 88.2654C75.5909 88.2545 74.9261 88.2636 74.263 88.2618L74.2648 88.2636Z" fill="#CCCCCC"/>
<path d="M47.0156 28.5579C47.0899 28.0462 47.4142 27.8477 47.8979 27.8477C49.3726 27.8495 50.8491 27.844 52.3237 27.8549C52.7821 27.8586 53.1643 27.9988 53.1643 28.5707C53.139 29.2755 52.7277 29.4776 52.0864 29.4685C50.7965 29.4485 49.5066 29.4321 48.2186 29.474C47.5229 29.4976 47.1515 29.2154 47.0156 28.5579Z" fill="#CCCCCC"/>
<path d="M109.151 31.692C109.767 31.2222 110.247 31.2677 110.87 31.8322C111.76 32.639 112.591 33.4822 113.383 34.3819C113.849 34.9118 113.961 35.3999 113.653 36.0082C112.526 36.3233 112.013 35.4546 111.484 34.7734C110.963 34.1014 110.383 33.4968 109.716 32.9996C109.233 32.639 109.08 32.2402 109.153 31.692H109.151Z" fill="#CCCCCC"/>
<path d="M28.8979 31.9888C28.7748 31.131 29.3798 30.6976 29.9668 30.3716C31.0103 29.7924 32.0991 29.2825 33.2042 28.8327C33.6155 28.6651 34.1626 28.5741 34.4941 29.115C34.5158 29.8452 34.1517 30.2714 33.4832 30.5245C32.4488 30.9161 31.4342 31.3514 30.5429 32.0379C30.0085 32.4495 29.4342 32.4222 28.8979 31.9888Z" fill="#CCCCCC"/>
<path d="M56.0596 28.5632C56.152 28.0132 56.5107 27.8402 57.0234 27.8438C58.4292 27.8529 59.8332 27.8529 61.2391 27.8438C61.7517 27.8402 62.1141 28.0077 62.2028 28.5614C62.1413 29.2315 61.7499 29.4738 61.1122 29.4665C59.8223 29.4501 58.5306 29.4301 57.2426 29.4738C56.5505 29.4974 56.1502 29.2661 56.0596 28.5632Z" fill="#CCCCCC"/>
<path d="M22.7269 66.0777C22.0729 65.8846 21.899 65.4894 21.9552 64.7846C22.0548 63.5189 22.0059 62.2386 22.0005 60.9656C21.9987 60.4266 22.1037 59.9968 22.7233 59.8984C23.3882 60.0551 23.6273 60.494 23.6146 61.1587C23.5929 62.3953 23.5748 63.6355 23.6219 64.8721C23.6473 65.5659 23.4226 65.972 22.7287 66.0795L22.7269 66.0777Z" fill="#CCCCCC"/>
<path d="M92.1762 88.2668C91.5131 88.2668 90.8483 88.2959 90.187 88.2595C89.6544 88.2304 89.091 88.0537 89.0928 87.4199C89.0946 86.7789 89.6 86.6532 90.187 86.6405C91.4479 86.615 92.7088 86.7261 93.9751 86.5549C94.4933 86.4839 95.1871 86.6296 95.1563 87.4564C95.1274 88.2194 94.5422 88.2504 93.9842 88.2631C93.3809 88.2777 92.7777 88.2668 92.1762 88.2668Z" fill="#CCCCCC"/>
<path d="M22.7121 57.1333C22.2012 57.0659 22.0055 56.7381 22.0055 56.2591C22.0037 54.7549 22.0128 53.2524 22.0001 51.7481C21.9947 51.2272 22.1921 50.9486 22.7284 50.9614C23.3697 50.9869 23.6215 51.3347 23.6107 51.963C23.5925 53.1741 23.5636 54.3888 23.6215 55.5962C23.6578 56.3575 23.4657 56.8893 22.7121 57.1315V57.1333Z" fill="#CCCCCC"/>
<path d="M114.753 38.6017C115.494 38.4506 115.869 38.7347 116.114 39.4832C116.534 40.7671 116.815 42.0638 116.9 43.406C116.931 43.905 116.871 44.3985 116.186 44.4167C115.592 44.4094 115.382 44.0853 115.284 43.5152C115.072 42.2732 114.982 41.002 114.487 39.8183C114.3 39.3703 114.317 38.9314 114.753 38.6035V38.6017Z" fill="#CCCCCC"/>
<path d="M47.2001 88.2656C46.5678 88.2656 45.9338 88.2747 45.3015 88.2656C44.7037 88.2546 44.3196 87.9723 44.2997 87.3404C44.2743 86.5974 44.8269 86.6738 45.3106 86.652C46.6005 86.5955 47.894 86.7522 49.1857 86.5245C49.7056 86.4335 50.2165 86.6338 50.2527 87.3331C50.289 88.027 49.8397 88.231 49.2799 88.2564C48.5878 88.2874 47.894 88.2637 47.2001 88.2656Z" fill="#CCCCCC"/>
<path d="M21.9766 71.5492C21.9856 70.9555 22.0128 70.3599 22.0001 69.7662C21.9892 69.2508 22.1849 68.9722 22.723 68.9977C23.348 69.0487 23.6089 69.4111 23.607 70.0176C23.6016 71.3488 23.5871 72.6801 23.6125 74.0096C23.6252 74.6433 23.3099 75.0531 22.7538 75.0786C22.0871 75.1114 21.982 74.576 21.9965 73.9986C22.0164 73.1828 21.9856 72.3651 21.9766 71.5492Z" fill="#CCCCCC"/>
<path d="M22.7212 48.0418C22.174 47.9543 21.9947 47.6028 22.0001 47.082C22.0128 45.7325 22.011 44.3812 22.0128 43.0317C22.0128 42.3142 22.3498 41.9117 23.0799 41.8789C23.6143 42.1867 23.723 42.5946 23.6596 43.2357C23.5418 44.4067 23.5998 45.5959 23.6143 46.7779C23.6215 47.4371 23.4041 47.8942 22.7248 48.0436L22.7212 48.0418Z" fill="#CCCCCC"/>
<path d="M65.2786 88.2663C64.6156 88.2663 63.9525 88.2863 63.2913 88.2608C62.7604 88.2408 62.2296 88.1461 62.2314 87.434C62.2314 86.7219 62.7043 86.64 63.2804 86.6491C64.6355 86.6691 65.9906 86.6564 67.3475 86.6564C67.8385 86.6564 68.3312 86.762 68.2968 87.352C68.266 87.8492 67.9635 88.2644 67.3602 88.2663C66.6682 88.2681 65.9743 88.2663 65.2823 88.2663H65.2786Z" fill="#CCCCCC"/>
<path d="M73.9951 28.5652C74.1111 27.9424 74.5966 27.8604 75.0912 27.855C76.4481 27.8404 77.805 27.855 79.1601 27.8477C79.7743 27.8441 80.1456 28.079 80.133 28.7455C80.0424 29.3137 79.6094 29.4503 79.1474 29.4576C77.7452 29.4776 76.343 29.443 74.9408 29.474C74.2759 29.4886 74.2216 28.9586 73.9951 28.5652Z" fill="#CCCCCC"/>
<path d="M83.134 88.2642C82.384 88.2642 81.7807 88.2861 81.1793 88.2588C80.6358 88.2333 80.1339 88.0985 80.1665 87.3846C80.1973 86.729 80.6285 86.6415 81.172 86.6488C82.5271 86.667 83.884 86.6634 85.2409 86.6488C85.7138 86.6434 86.116 86.7508 86.1957 87.2644C86.2808 87.8217 85.9076 88.0584 85.4149 88.1786C84.6087 88.3735 83.7935 88.2005 83.1322 88.2679L83.134 88.2642Z" fill="#CCCCCC"/>
<path d="M56.2784 86.6578C57.0012 86.6578 57.7259 86.6578 58.4487 86.6578C58.8998 86.6578 59.2187 86.86 59.2803 87.3189C59.3382 87.7487 59.0302 87.9618 58.6897 88.1348C58.407 88.2787 58.1063 88.2714 57.8056 88.2659C56.5755 88.2386 55.3454 88.2878 54.1116 88.1967C53.5301 88.1548 53.2529 87.8744 53.2094 87.4172C53.1569 86.849 53.5863 86.6523 54.1062 86.6523C54.829 86.6523 55.5537 86.6523 56.2766 86.6523V86.656L56.2784 86.6578Z" fill="#CCCCCC"/>
<path d="M116.182 65.5117C116.708 65.5172 116.923 65.7758 116.916 66.3094C116.898 67.7299 116.903 69.1504 116.916 70.5728C116.919 71.0954 116.742 71.4524 116.191 71.5416C115.635 71.4761 115.447 71.1592 115.457 70.6074C115.483 69.2123 115.476 67.8173 115.461 66.4223C115.456 65.8978 115.568 65.5154 116.184 65.5135L116.182 65.5117Z" fill="#CCCCCC"/>
<path d="M65.1016 28.5704C65.2084 28.0332 65.5508 27.8402 66.0726 27.8438C67.4223 27.8547 68.7738 27.8529 70.1234 27.8438C70.743 27.8402 71.089 28.1042 71.0927 28.7507C71.1035 29.1951 70.8408 29.3117 70.455 29.3098C68.9205 29.3044 67.3842 29.2862 65.8498 29.319C65.2791 29.3317 65.2863 28.8819 65.1016 28.5704Z" fill="#CCCCCC"/>
<path d="M116.189 56.4297C116.734 56.5189 116.917 56.8704 116.914 57.3931C116.905 58.7462 116.892 60.1012 116.919 61.4543C116.93 62.0262 116.635 62.3394 116.198 62.5944C115.666 62.4341 115.463 62.0444 115.463 61.5162C115.463 60.1376 115.47 58.759 115.459 57.3822C115.455 56.8595 115.647 56.5171 116.187 56.4315L116.189 56.4297Z" fill="#CCCCCC"/>
<path d="M116.003 47.4937C116.632 47.4482 116.938 47.6831 116.92 48.377C116.883 49.7647 116.903 51.1543 116.912 52.542C116.916 53.0629 116.742 53.4216 116.19 53.5091C115.617 53.3306 115.432 52.9463 115.45 52.3453C115.49 51.0232 115.467 49.6974 115.461 48.3752C115.461 47.96 115.479 47.5757 116.003 47.4937Z" fill="#CCCCCC"/>
<path d="M138.669 45.5386C138.499 42.9962 137.893 40.5376 137.087 38.1664C136.489 36.4036 135.739 34.668 134.837 32.9961C133.238 30.0294 131.312 27.3287 129.06 24.85C125.317 20.7324 120.878 17.498 116.107 14.717C114.016 13.4987 111.846 12.406 109.654 11.3806C106.567 9.93645 103.373 8.74358 100.135 7.68366C96.3489 6.44526 92.5227 5.33617 88.6403 4.44015C86.1058 3.85374 83.5695 3.27096 80.9952 2.87394C80.6782 2.82477 80.2343 2.84845 80.1473 2.35673C73.2812 2.92494 66.4858 3.75175 60.3642 7.66727C61.4005 8.30104 62.4422 8.34657 63.3933 8.66709C67.0111 9.88182 70.5493 11.255 73.6001 13.6407C75.1291 14.8372 76.5223 16.1904 77.4009 17.9405C78.2741 19.6779 77.5966 22.0072 75.2903 22.3751C72.7613 22.7794 70.2685 22.4916 67.7811 21.9835C65.9187 21.6029 64.1125 21.0492 62.3661 20.319C60.5309 19.5522 58.7501 18.6307 57.3116 17.2248C55.8098 15.7587 55.6304 13.8848 56.009 11.9179C56.2065 10.8889 56.692 9.97652 57.3533 9.18795C57.8152 8.63613 57.5743 8.44309 57.0526 8.36842C55.9837 8.21727 54.913 8.05882 53.8369 7.99872C49.6121 7.76561 45.4109 8.13167 41.2786 8.9512C36.7422 9.85086 32.2947 11.0965 28.0953 13.1526C25.3216 14.5112 22.6893 16.0428 20.3704 18.0917C17.7309 20.4209 15.7544 23.231 14.4301 26.5C14.104 27.305 13.7507 28.0954 13.6003 28.9677C13.5333 29.3593 13.3123 29.8983 12.7923 29.7581C12.3304 29.6324 12.4463 29.168 12.5514 28.7565C13.3721 25.5749 14.8721 22.7502 16.8685 20.1623C18.0244 18.6653 19.3795 17.3541 20.856 16.2322C23.3687 14.32 26.0934 12.7265 29.0174 11.4917C33.6008 9.55583 38.3781 8.30468 43.266 7.4979C46.8349 6.90966 50.4509 6.74029 54.0615 6.94244C55.3985 7.01711 56.7573 7.08632 58.0761 7.41777C58.4221 7.50519 58.7645 7.48333 59.0997 7.23201C62.8009 4.45472 67.08 3.15805 71.5475 2.34216C72.1888 2.22561 72.8446 2.13455 73.4407 1.83223C72.6145 1.4079 71.6979 1.55542 70.8319 1.40062C67.6996 0.837874 64.5201 0.668505 61.3661 0.400793C57.7772 0.0966568 54.1557 0.113047 50.5506 0.00924046C47.882 -0.0672488 45.208 0.211391 42.5377 0.295165C40.5141 0.358906 38.5303 0.650293 36.5484 0.932575C32.8617 1.45889 29.3018 2.55888 25.8289 3.8683C21.9339 5.33617 18.3178 7.40866 14.9156 9.79986C12.2108 11.6993 9.73972 13.9103 7.55669 16.418C6.84472 17.2357 6.02767 17.9988 5.48599 18.9203C4.18885 21.1294 2.66526 23.2183 1.7993 25.6732C1.38262 26.857 0.917028 28.0262 0.639847 29.2482C0.281142 30.8344 0.0909197 32.437 0.0275123 34.0797C-0.0377068 35.7734 -0.00328561 37.4562 0.261214 39.1062C0.561946 40.982 0.965942 42.8469 1.43516 44.7008C1.908 46.5693 2.61635 48.3413 3.25948 50.1352C4.09284 52.4608 5.38997 54.5861 6.64544 56.7023C8.79404 60.3246 11.5749 63.4534 14.6112 66.3527C16.5551 68.2103 18.7653 69.7201 20.9483 71.2644C21.2545 71.4812 21.6024 71.5686 21.9755 71.5431C21.9846 70.9494 22.0118 70.3539 21.9991 69.7601C21.9882 69.2448 22.1839 68.9661 22.7219 68.9916C22.7219 68.0191 22.7219 67.0466 22.7238 66.0741C22.0698 65.8811 21.8958 65.4859 21.952 64.7811C22.0516 63.5153 22.0027 62.2351 21.9973 60.9621C21.9955 60.423 22.1006 59.9932 22.7201 59.8949C22.7165 58.9733 22.7147 58.05 22.7111 57.1285C22.2002 57.0611 22.0045 56.7333 22.0045 56.2543C22.0027 54.75 22.0118 53.2476 21.9991 51.7433C21.9937 51.2224 22.1911 50.9438 22.7274 50.9565C22.7256 49.984 22.7238 49.0115 22.7219 48.039C22.1748 47.9516 21.9955 47.6001 22.0009 47.0793C22.0136 45.7298 22.0118 44.3785 22.0136 43.029C22.0136 42.3114 22.3506 41.909 23.0806 41.8762C23.1712 40.9182 23.5698 40.0423 23.8144 39.1262C23.202 38.7492 23.1767 38.3103 23.5082 37.6747C24.1386 36.4728 24.7655 35.2781 25.6767 34.2619C25.992 33.9104 26.3615 33.6736 26.8507 33.6773C27.8743 33.5297 28.2927 32.6428 28.8978 31.9854C28.7746 31.1276 29.3797 30.6942 29.9667 30.3682C31.0102 29.7891 32.099 29.2791 33.2041 28.8293C33.6153 28.6617 34.1625 28.5707 34.494 29.1116C35.4922 29.2518 36.389 28.5561 37.3944 28.751C37.4053 28.1118 37.7404 27.8422 38.3637 27.8459C40.0104 27.855 41.659 27.8531 43.3058 27.8459C43.8185 27.844 44.1826 28.0098 44.2732 28.5634C45.1881 28.4778 46.103 28.7382 47.0179 28.5598C47.0921 28.048 47.4164 27.8495 47.9001 27.8495C49.3748 27.8513 50.8513 27.8459 52.326 27.8568C52.7843 27.8604 53.1666 28.0007 53.1666 28.5725C54.1322 28.5707 55.096 28.5689 56.0616 28.567C56.154 28.0171 56.5127 27.844 57.0254 27.8477C58.4312 27.8568 59.8352 27.8568 61.2411 27.8477C61.7538 27.844 62.1161 28.0116 62.2049 28.5652C63.1705 28.567 64.1361 28.5707 65.1017 28.5725C65.2086 28.0353 65.551 27.8422 66.0727 27.8459C67.4224 27.8568 68.7739 27.855 70.1235 27.8459C70.7431 27.8422 71.0891 28.1063 71.0928 28.7528C72.0511 28.5379 73.024 28.567 73.995 28.5652C74.111 27.9424 74.5965 27.8604 75.0911 27.855C76.448 27.8404 77.8049 27.855 79.16 27.8477C79.7742 27.844 80.1455 28.079 80.1329 28.7455C80.7905 28.6271 81.4499 28.5088 82.1238 28.5743C82.1003 26.5146 82.1202 24.4822 83.0134 22.5353C84.8178 18.6016 87.7254 16.0847 91.9448 15.0776C96.4467 14.0031 100.298 15.3472 103.543 18.4049C105.592 20.3353 106.773 22.8449 107.163 25.7224C107.378 27.3159 107.222 28.842 106.947 30.3882C107.788 30.6395 108.577 30.9819 109.15 31.6904C109.766 31.2205 110.246 31.266 110.869 31.8306C111.759 32.6374 112.59 33.4806 113.382 34.3802C113.847 34.9102 113.96 35.3983 113.652 36.0065C113.925 36.9117 114.637 37.6292 114.753 38.6035C115.494 38.4524 115.869 38.7365 116.114 39.485C116.534 40.7689 116.815 42.0656 116.9 43.4078C116.931 43.9068 116.871 44.4003 116.186 44.4185C116.136 45.4439 116.337 46.4856 116.003 47.4945C116.632 47.449 116.938 47.6839 116.92 48.3778C116.884 49.7655 116.904 51.155 116.913 52.5428C116.916 53.0636 116.743 53.4224 116.19 53.5098C116.19 54.4823 116.19 55.4567 116.19 56.4292C116.735 56.5184 116.918 56.8699 116.915 57.3926C116.906 58.7457 116.893 60.1007 116.92 61.4538C116.931 62.0256 116.636 62.3389 116.199 62.5938C116.194 63.5663 116.188 64.5388 116.181 65.5132C116.706 65.5186 116.922 65.7772 116.915 66.3108C116.896 67.7314 116.902 69.1519 116.915 70.5742C116.918 71.0969 116.741 71.4538 116.19 71.5431C116.069 72.5138 115.947 73.4826 115.826 74.4533C116.442 74.63 116.601 75.0379 116.418 75.6225C116.275 76.0796 116.134 76.5386 115.991 76.9957C117.971 76.6842 119.746 75.7299 121.574 75.0161C123.812 74.1437 125.909 72.8853 127.911 71.4921C131.025 69.3212 133.681 66.737 135.687 63.4844C136.988 61.3773 137.745 59.048 138.421 56.7078C138.964 54.8229 138.895 52.8232 138.986 50.8709C139.067 49.0953 138.787 47.3215 138.669 45.5458V45.5386Z" fill="#F1F1F1"/>
<path d="M72.7885 21.4739C67.792 21.3027 63.1506 20.0097 58.9494 17.1996C56.712 15.7026 56.3714 12.7906 57.6341 10.7017C58.924 8.56727 59.1124 8.55998 61.4839 9.22471C64.4513 10.057 67.3499 11.0623 70.0439 12.5738C72.4533 13.9252 74.6635 15.5333 76.1817 17.9317C76.9208 19.0991 76.8611 20.241 76.0186 20.9786C75.5567 21.3829 74.986 21.4375 74.4172 21.4685C73.8755 21.4976 73.3302 21.4757 72.7867 21.4757L72.7885 21.4739Z" fill="#F1F1F1"/>
<path d="M96.6441 27.6066C96.6043 28.774 96.7275 30.047 96.4467 31.3054C96.2148 32.3453 95.6749 32.9245 94.8289 32.95C93.6205 32.9882 92.9846 32.3599 92.8306 31.0122C92.5607 28.6575 92.5625 26.3063 92.8234 23.9515C93.0045 22.3161 94.0317 21.5148 95.3506 21.9701C95.914 22.165 96.1097 22.5766 96.28 23.0901C96.7583 24.5361 96.6206 26.024 96.6459 27.6048L96.6441 27.6066Z" fill="#CCCCCC"/>
</g>
<defs>
<clipPath id="clip0_5232_81390">
<rect width="139" height="93" fill="white"/>
</clipPath>
</defs>
</svg>
