<svg width="25" height="26" viewBox="0 0 25 26" fill="none" xmlns="http://www.w3.org/2000/svg">
<path d="M8.32373 6.48438C7.89665 6.48438 7.54248 6.13021 7.54248 5.70312V2.57812C7.54248 2.15104 7.89665 1.79688 8.32373 1.79688C8.75081 1.79688 9.10498 2.15104 9.10498 2.57812V5.70312C9.10498 6.13021 8.75081 6.48438 8.32373 6.48438Z" fill="#718EBF"/>
<path d="M16.6636 6.49219C16.2365 6.49219 15.8823 6.13802 15.8823 5.71094V2.58594C15.8823 2.15885 16.2365 1.80469 16.6636 1.80469C17.0907 1.80469 17.4448 2.15885 17.4448 2.58594V5.71094C17.4448 6.13802 17.0907 6.49219 16.6636 6.49219Z" fill="#718EBF"/>
<path d="M8.84782 15.601C8.7124 15.601 8.57698 15.5698 8.45198 15.5177C8.31657 15.4656 8.2124 15.3926 8.10824 15.2989C7.92074 15.101 7.80615 14.8406 7.80615 14.5593C7.80615 14.4239 7.8374 14.2885 7.88949 14.1635C7.94157 14.0385 8.01449 13.9239 8.10824 13.8198C8.2124 13.726 8.31657 13.6531 8.45198 13.601C8.82698 13.4447 9.29573 13.5281 9.5874 13.8198C9.7749 14.0177 9.88949 14.2885 9.88949 14.5593C9.88949 14.6218 9.87907 14.6948 9.86865 14.7677C9.85824 14.8302 9.8374 14.8927 9.80615 14.9552C9.78532 15.0177 9.75407 15.0802 9.7124 15.1427C9.68115 15.1947 9.62907 15.2468 9.5874 15.2989C9.38948 15.4864 9.11865 15.601 8.84782 15.601Z" fill="#718EBF"/>
<path d="M12.4967 15.6056C12.3613 15.6056 12.2259 15.5744 12.1009 15.5223C11.9655 15.4702 11.8613 15.3973 11.7572 15.3035C11.5697 15.1056 11.4551 14.8452 11.4551 14.564C11.4551 14.4285 11.4863 14.2931 11.5384 14.1681C11.5905 14.0431 11.6634 13.9285 11.7572 13.8244C11.8613 13.7306 11.9655 13.6577 12.1009 13.6056C12.4759 13.4389 12.9447 13.5327 13.2363 13.8244C13.4238 14.0223 13.5384 14.2931 13.5384 14.564C13.5384 14.6265 13.528 14.6994 13.5176 14.7723C13.5072 14.8348 13.4863 14.8973 13.4551 14.9598C13.4342 15.0223 13.403 15.0848 13.3613 15.1473C13.3301 15.1994 13.278 15.2514 13.2363 15.3035C13.0384 15.491 12.7676 15.6056 12.4967 15.6056Z" fill="#718EBF"/>
<path d="M16.1359 15.6056C16.0005 15.6056 15.8651 15.5744 15.7401 15.5223C15.6047 15.4702 15.5005 15.3973 15.3963 15.3035C15.3547 15.2514 15.313 15.1994 15.2713 15.1473C15.2297 15.0848 15.1984 15.0223 15.1776 14.9598C15.1463 14.8973 15.1255 14.8348 15.1151 14.7723C15.1047 14.6994 15.0942 14.6265 15.0942 14.564C15.0942 14.2931 15.2088 14.0223 15.3963 13.8244C15.5005 13.7306 15.6047 13.6577 15.7401 13.6056C16.1255 13.4389 16.5838 13.5327 16.8755 13.8244C17.063 14.0223 17.1776 14.2931 17.1776 14.564C17.1776 14.6265 17.1672 14.6994 17.1567 14.7723C17.1463 14.8348 17.1255 14.8973 17.0942 14.9598C17.0734 15.0223 17.0422 15.0848 17.0005 15.1473C16.9692 15.1994 16.9172 15.2514 16.8755 15.3035C16.6776 15.491 16.4067 15.6056 16.1359 15.6056Z" fill="#718EBF"/>
<path d="M8.84782 19.25C8.7124 19.25 8.57698 19.2188 8.45198 19.1667C8.32698 19.1146 8.2124 19.0416 8.10824 18.9479C7.92074 18.75 7.80615 18.4792 7.80615 18.2083C7.80615 18.0729 7.8374 17.9375 7.88949 17.8125C7.94157 17.6771 8.01449 17.5625 8.10824 17.4688C8.49365 17.0833 9.20198 17.0833 9.5874 17.4688C9.7749 17.6667 9.88949 17.9375 9.88949 18.2083C9.88949 18.4792 9.7749 18.75 9.5874 18.9479C9.38948 19.1354 9.11865 19.25 8.84782 19.25Z" fill="#718EBF"/>
<path d="M12.4967 19.25C12.2259 19.25 11.9551 19.1354 11.7572 18.9479C11.5697 18.75 11.4551 18.4792 11.4551 18.2083C11.4551 18.0729 11.4863 17.9375 11.5384 17.8125C11.5905 17.6771 11.6634 17.5625 11.7572 17.4688C12.1426 17.0833 12.8509 17.0833 13.2363 17.4688C13.3301 17.5625 13.403 17.6771 13.4551 17.8125C13.5072 17.9375 13.5384 18.0729 13.5384 18.2083C13.5384 18.4792 13.4238 18.75 13.2363 18.9479C13.0384 19.1354 12.7676 19.25 12.4967 19.25Z" fill="#718EBF"/>
<path d="M16.1359 19.2483C15.8651 19.2483 15.5942 19.1337 15.3963 18.9462C15.3026 18.8525 15.2297 18.7379 15.1776 18.6025C15.1255 18.4775 15.0942 18.3421 15.0942 18.2067C15.0942 18.0712 15.1255 17.9358 15.1776 17.8108C15.2297 17.6754 15.3026 17.5608 15.3963 17.4671C15.6359 17.2275 16.0005 17.1129 16.3338 17.1858C16.4067 17.1962 16.4692 17.2171 16.5317 17.2483C16.5942 17.2691 16.6567 17.3004 16.7192 17.3421C16.7713 17.3733 16.8234 17.4254 16.8755 17.4671C17.063 17.665 17.1776 17.9358 17.1776 18.2067C17.1776 18.4775 17.063 18.7483 16.8755 18.9462C16.6776 19.1337 16.4067 19.2483 16.1359 19.2483Z" fill="#718EBF"/>
<path d="M21.3509 10.75H3.64258C3.21549 10.75 2.86133 10.3958 2.86133 9.96875C2.86133 9.54167 3.21549 9.1875 3.64258 9.1875H21.3509C21.778 9.1875 22.1322 9.54167 22.1322 9.96875C22.1322 10.3958 21.778 10.75 21.3509 10.75Z" fill="#718EBF"/>
<path d="M16.6471 24.2005H8.3138C4.51172 24.2005 2.32422 22.013 2.32422 18.2109V9.35677C2.32422 5.55469 4.51172 3.36719 8.3138 3.36719H16.6471C20.4492 3.36719 22.6367 5.55469 22.6367 9.35677V18.2109C22.6367 22.013 20.4492 24.2005 16.6471 24.2005ZM8.3138 4.92969C5.33464 4.92969 3.88672 6.3776 3.88672 9.35677V18.2109C3.88672 21.1901 5.33464 22.638 8.3138 22.638H16.6471C19.6263 22.638 21.0742 21.1901 21.0742 18.2109V9.35677C21.0742 6.3776 19.6263 4.92969 16.6471 4.92969H8.3138Z" fill="#718EBF"/>
</svg>
