<svg width="22" height="22" viewBox="0 0 22 22" fill="none" xmlns="http://www.w3.org/2000/svg">
<path d="M8.00244 8.10938C7.74619 8.10938 7.53369 7.92521 7.53369 7.70312V6.07812C7.53369 5.85604 7.74619 5.67188 8.00244 5.67188C8.25869 5.67188 8.47119 5.85604 8.47119 6.07812V7.70312C8.47119 7.92521 8.25869 8.10938 8.00244 8.10938Z" fill="#FF8F6B"/>
<path d="M13.0059 8.10938C12.7496 8.10938 12.5371 7.92521 12.5371 7.70312V6.07812C12.5371 5.85604 12.7496 5.67188 13.0059 5.67188C13.2621 5.67188 13.4746 5.85604 13.4746 6.07812V7.70312C13.4746 7.92521 13.2621 8.10938 13.0059 8.10938Z" fill="#FF8F6B"/>
<path d="M8.31885 12.85C8.15635 12.85 7.99385 12.7904 7.8751 12.6929C7.7626 12.59 7.69385 12.4546 7.69385 12.3083C7.69385 12.2379 7.7126 12.1675 7.74385 12.1025C7.7751 12.0375 7.81885 11.9779 7.8751 11.9238C8.10635 11.7233 8.5251 11.7233 8.7626 11.9238C8.8751 12.0267 8.94385 12.1675 8.94385 12.3083C8.94385 12.3408 8.9376 12.3788 8.93135 12.4167C8.9251 12.4492 8.9126 12.4817 8.89385 12.5142C8.88135 12.5467 8.8626 12.5792 8.8376 12.6117C8.8126 12.6387 8.7876 12.6658 8.7626 12.6929C8.64385 12.7904 8.48135 12.85 8.31885 12.85Z" fill="#FF8F6B"/>
<path d="M10.5015 12.846C10.4202 12.846 10.339 12.8297 10.264 12.8026C10.1827 12.7755 10.1202 12.7376 10.0577 12.6889C9.94522 12.5859 9.87646 12.4505 9.87646 12.3043C9.87646 12.2339 9.89522 12.1635 9.92647 12.0985C9.95772 12.0335 10.0015 11.9739 10.0577 11.9197C10.1202 11.871 10.1827 11.833 10.264 11.8059C10.4952 11.7247 10.7702 11.768 10.9452 11.9197C11.0577 12.0226 11.1265 12.1635 11.1265 12.3043C11.1265 12.3368 11.1202 12.3747 11.114 12.4126C11.1077 12.4451 11.0952 12.4776 11.0765 12.5101C11.064 12.5426 11.0452 12.5751 11.0202 12.6076C11.0015 12.6347 10.9702 12.6618 10.9452 12.6889C10.8265 12.7864 10.664 12.846 10.5015 12.846Z" fill="#FF8F6B"/>
<path d="M8.31885 14.7389C8.2376 14.7389 8.15635 14.7227 8.08135 14.6956C8.0001 14.6685 7.93135 14.6306 7.8751 14.5818C7.81885 14.5331 7.7751 14.4735 7.74385 14.4031C7.7126 14.3381 7.69385 14.2677 7.69385 14.1973C7.69385 14.1269 7.7126 14.0564 7.74385 13.9914C7.7751 13.921 7.81885 13.8614 7.8751 13.8127C7.93135 13.7639 8.0001 13.726 8.08135 13.6989C8.23135 13.6448 8.40635 13.6393 8.55635 13.6989C8.6376 13.726 8.70635 13.7639 8.7626 13.8127C8.81885 13.8614 8.8626 13.921 8.89385 13.9914C8.9251 14.0564 8.94385 14.1269 8.94385 14.1973C8.94385 14.2677 8.9251 14.3381 8.89385 14.4031C8.8626 14.4735 8.81885 14.5331 8.7626 14.5818C8.70635 14.6306 8.6376 14.6685 8.55635 14.6956C8.48135 14.7227 8.4001 14.7389 8.31885 14.7389Z" fill="#FF8F6B"/>
<path d="M15.8179 10.3203H5.19287C4.93662 10.3203 4.72412 10.1361 4.72412 9.91406C4.72412 9.69198 4.93662 9.50781 5.19287 9.50781H15.8179C16.0741 9.50781 16.2866 9.69198 16.2866 9.91406C16.2866 10.1361 16.0741 10.3203 15.8179 10.3203Z" fill="#FF8F6B"/>
<path d="M14.2529 17.8607C13.5217 17.8607 12.8279 17.6332 12.2967 17.2161C12.0717 17.0536 11.8717 16.8478 11.7092 16.6094C11.4342 16.2194 11.2842 15.759 11.2842 15.2878C11.2842 13.8686 12.6154 12.7148 14.2529 12.7148C15.1029 12.7148 15.9154 13.0344 16.4779 13.5869C16.9592 14.0636 17.2217 14.6648 17.2217 15.2878C17.2217 15.759 17.0717 16.2194 16.7904 16.6148C16.2654 17.384 15.2904 17.8607 14.2529 17.8607ZM14.2529 13.5273C13.1342 13.5273 12.2217 14.3182 12.2217 15.2878C12.2217 15.6073 12.3217 15.9215 12.5154 16.1924C12.6217 16.3549 12.7592 16.4903 12.9092 16.604C13.2842 16.8965 13.7529 17.0482 14.2529 17.0482C14.9717 17.0482 15.6217 16.7286 15.9904 16.1978C16.1842 15.9215 16.2842 15.6128 16.2842 15.2878C16.2842 14.8653 16.1029 14.4536 15.7779 14.1232C15.3904 13.744 14.8342 13.5273 14.2529 13.5273Z" fill="#FF8F6B"/>
<path d="M13.8989 16.2262C13.7802 16.2262 13.6614 16.1883 13.5677 16.107L12.9489 15.5708C12.7677 15.4137 12.7677 15.1537 12.9489 14.9966C13.1302 14.8395 13.4302 14.8395 13.6114 14.9966L13.9114 15.2566L14.9114 14.4549C15.0989 14.3033 15.3989 14.3141 15.5739 14.4766C15.7489 14.6391 15.7364 14.8991 15.5489 15.0508L14.2177 16.1179C14.1239 16.1883 14.0114 16.2262 13.8989 16.2262Z" fill="#FF8F6B"/>
<path d="M12.6058 17.3216H7.99951C5.71826 17.3216 4.40576 16.1841 4.40576 14.207V9.60286C4.40576 7.62578 5.71826 6.48828 7.99951 6.48828H12.9995C15.2808 6.48828 16.5933 7.62578 16.5933 9.60286V13.8604C16.5933 14.0283 16.4745 14.1799 16.287 14.2395C16.1058 14.2991 15.8995 14.2558 15.7683 14.1258C15.3808 13.7466 14.8245 13.5299 14.2433 13.5299C13.1245 13.5299 12.212 14.3208 12.212 15.2904C12.212 15.6099 12.312 15.9241 12.5058 16.195C12.612 16.3575 12.7495 16.4929 12.8995 16.6066C13.0495 16.7149 13.1058 16.8937 13.037 17.0562C12.9808 17.2133 12.8058 17.3216 12.6058 17.3216ZM7.99951 7.30078C6.21201 7.30078 5.34326 8.0537 5.34326 9.60286V14.207C5.34326 15.7562 6.21201 16.5091 7.99951 16.5091H11.637C11.4058 16.1408 11.2808 15.7237 11.2808 15.2904C11.2808 13.8712 12.612 12.7174 14.2495 12.7174C14.7433 12.7174 15.2308 12.8258 15.6558 13.0262V9.60286C15.6558 8.0537 14.787 7.30078 12.9995 7.30078H7.99951Z" fill="#FF8F6B"/>
</svg>
