<svg width="131" height="272" viewBox="0 0 131 272" fill="none" xmlns="http://www.w3.org/2000/svg">
<g clip-path="url(#clip0_4159_37283)">
<path d="M98.228 6.68916C89.0445 2.48517 78.2744 0.388271 65.9175 0.398475C53.5606 0.408678 42.8108 2.50557 33.6681 6.68916C28.1091 9.24837 23.4008 13.3485 20.1019 18.5031C16.8029 23.6576 15.0518 29.6503 15.0563 35.7702L15.0563 239.475C15.0576 246.698 17.7064 253.669 22.5013 259.07C27.2962 264.472 33.9046 267.928 41.0761 268.786C41.0761 268.786 55.8156 271.77 65.9634 271.77C76.1111 271.77 90.8659 268.786 90.8659 268.786C98.0374 267.928 104.646 264.472 109.441 259.07C114.236 253.669 116.884 246.698 116.886 239.475L116.886 35.7702C116.882 29.6461 115.123 23.6515 111.816 18.4971C108.509 13.3427 103.793 9.24474 98.228 6.68916Z" fill="#15B097"/>
<path d="M48.3783 268.777C41.2068 267.92 34.5983 264.464 29.8034 259.062C25.0085 253.661 22.3597 246.689 22.3584 239.467L22.3584 35.762C22.3539 29.6421 24.1051 23.6494 27.404 18.4948C30.7029 13.3403 35.4112 9.24016 40.9703 6.68095C50.0036 2.72971 59.7335 0.617234 69.5921 0.466797C68.3829 0.466797 67.1738 0.466797 65.9187 0.466797C53.572 0.466797 42.8069 2.56369 33.6235 6.75748C28.0644 9.31669 23.3561 13.4168 20.0572 18.5714C16.7583 23.726 15.0072 29.7186 15.0116 35.8385L15.0116 239.467C15.0129 246.689 17.6617 253.661 22.4566 259.062C27.2515 264.464 33.86 267.92 41.0315 268.777C41.0315 268.777 55.771 271.762 65.9187 271.762C67.0973 271.762 68.337 271.762 69.5921 271.655C62.4688 271.128 55.3844 270.167 48.3783 268.777Z" fill="#0B7B69"/>
<path d="M18.5877 107.17H0.833008C0.833008 103.817 2.16499 100.601 4.53593 98.2303C6.90688 95.8593 10.1226 94.5273 13.4756 94.5273H18.5877L18.5877 107.17Z" fill="#0B7B69"/>
<path d="M31.1509 154.654C31.1509 186.505 28.9163 212.311 26.1612 212.311C23.4062 212.311 21.1715 186.505 21.1715 154.654C21.1715 122.802 23.4062 107.711 26.1612 107.711C28.9163 107.711 31.1509 122.818 31.1509 154.654Z" fill="#352F30"/>
<path d="M27.5446 254.695C25.7415 252.896 24.1355 250.911 22.7538 248.772C22.6659 248.634 22.5331 248.532 22.378 248.482C22.223 248.431 22.0553 248.436 21.9035 248.496C21.7518 248.556 21.6255 248.666 21.5461 248.808C21.4667 248.951 21.4391 249.116 21.4682 249.277C22.2851 253.373 24.4897 257.062 27.71 259.722C30.9304 262.382 34.9696 263.85 39.1464 263.878C39.3083 263.882 39.4663 263.827 39.5923 263.726C39.7184 263.624 39.8045 263.481 39.8356 263.322C39.8666 263.163 39.8407 262.998 39.7622 262.856C39.6837 262.714 39.5578 262.605 39.4065 262.547C34.9515 260.779 30.9122 258.105 27.5446 254.695Z" fill="#FC0013"/>
<path d="M30.8986 18.6412C33.0217 16.0544 35.4125 13.6995 38.0311 11.6158C38.1618 11.4752 38.2451 11.2972 38.2694 11.1068C38.2937 10.9164 38.2577 10.7232 38.1665 10.5543C38.0753 10.3854 37.9334 10.2493 37.7609 10.1652C37.5884 10.081 37.3938 10.0531 37.2046 10.0852C31.9634 11.6684 27.4277 15.009 24.3612 19.5447C21.2946 24.0804 19.8845 29.5341 20.3682 34.9878C20.3823 35.2059 20.4738 35.4118 20.6261 35.5685C20.7785 35.7252 20.9818 35.8225 21.1994 35.8428C21.417 35.8631 21.6347 35.8051 21.8134 35.6792C21.9921 35.5533 22.1201 35.3679 22.1743 35.1561C23.8979 29.1026 26.8697 23.4769 30.8986 18.6412Z" fill="white"/>
<path d="M21.6823 24.9258C20.544 28.1324 20.1056 31.5456 20.3966 34.9358C20.4108 35.1539 20.5022 35.3598 20.6546 35.5165C20.8069 35.6732 21.0102 35.7705 21.2278 35.7908C21.4454 35.8111 21.6632 35.7531 21.8419 35.6272C22.0206 35.5013 22.1485 35.3159 22.2027 35.1041C22.9284 32.4606 23.9181 29.8968 25.1567 27.4512C23.9629 26.7013 22.7996 25.8441 21.6823 24.9258Z" fill="#FFA74E"/>
<path d="M34.5467 150.84H21.1694L21.1694 159.778H34.5467V150.84Z" fill="#15B097"/>
<path d="M34.559 196.662H18.5951V198.851H34.559V196.662Z" fill="#15B097"/>
<path d="M34.4496 59.1993L58.3726 11.9044C58.5713 11.5342 58.6324 11.1056 58.5449 10.6947C58.4573 10.2838 58.2269 9.91719 57.8946 9.66014C57.5623 9.4031 57.1496 9.27222 56.7298 9.2908C56.3101 9.30937 55.9106 9.47619 55.6023 9.76159C46.8626 17.4145 32.1844 33.9907 31.113 58.281C31.1098 58.6756 31.237 59.0602 31.4749 59.375C31.7128 59.6899 32.048 59.9173 32.4285 60.0221C32.8089 60.1268 33.2133 60.1029 33.5788 59.9541C33.9443 59.8053 34.2505 59.54 34.4496 59.1993Z" fill="#A4F4E7"/>
<path d="M113.253 107.17H131.007C131.007 105.508 130.68 103.863 130.044 102.328C129.407 100.793 128.475 99.399 127.299 98.2249C126.123 97.0507 124.728 96.1198 123.192 95.4853C121.657 94.8509 120.011 94.5253 118.349 94.5274H113.253V107.17Z" fill="#15B097"/>
<path d="M65.9245 155.307H84.6282C86.4184 155.307 88.1352 154.596 89.4011 153.33C90.6669 152.064 91.3781 150.347 91.3781 148.557V136.603C91.3801 135.716 91.2069 134.838 90.8684 134.018C90.5299 133.198 90.0327 132.453 89.4056 131.826C88.7784 131.199 88.0335 130.702 87.2136 130.363C86.3938 130.025 85.5152 129.852 84.6282 129.854H47.2208C45.4306 129.854 43.7138 130.565 42.4479 131.831C41.1821 133.096 40.4709 134.813 40.4709 136.603L40.4709 148.557C40.475 150.346 41.1874 152.061 42.4524 153.326C43.7174 154.591 45.4319 155.303 47.2208 155.307H65.9245Z" fill="#352F30"/>
<path d="M101.235 77.8316C90.248 72.4592 78.1528 69.7434 65.9241 69.9031C53.6954 69.7434 41.6002 72.4592 30.6136 77.8316C29.2253 78.5421 28.1143 79.6962 27.457 81.1105C26.7998 82.5248 26.634 84.1182 26.9862 85.6375L33.2615 113.188C33.5647 114.491 34.3239 115.642 35.4018 116.433C36.4798 117.225 37.8054 117.605 39.139 117.504L55.057 116.218C62.285 115.637 69.548 115.637 76.7759 116.218L92.6786 117.504C94.0135 117.611 95.3423 117.234 96.4216 116.441C97.501 115.649 98.2587 114.494 98.5561 113.188L104.847 85.6375C105.2 84.1199 105.037 82.5278 104.382 81.1137C103.728 79.6996 102.62 78.5445 101.235 77.8316Z" fill="#352F30"/>
<path d="M27.22 86.7457C52.777 91.7049 79.0491 91.7049 104.606 86.7457L104.851 85.6896C105.203 84.1703 105.037 82.5769 104.38 81.1626C103.723 79.7482 102.612 78.5941 101.224 77.8836C90.1852 72.6692 78.1288 69.9648 65.9208 69.9648C53.7127 69.9648 41.6563 72.6692 30.6179 77.8836C29.2296 78.5941 28.1185 79.7482 27.4613 81.1626C26.804 82.5769 26.6383 84.1703 26.9904 85.6896L27.22 86.7457Z" fill="#161414"/>
<path d="M49.7385 205.225L40.907 204.199C40.0107 204.098 39.1031 204.176 38.2376 204.431C37.3722 204.685 36.5663 205.11 35.8675 205.681C35.1687 206.251 34.5911 206.956 34.1686 207.753C33.746 208.55 33.4872 209.423 33.4072 210.322L31.6011 228.903C31.4648 230.336 31.7891 231.775 32.5268 233.011C33.2645 234.246 34.3772 235.215 35.703 235.775C45.2636 239.815 55.5374 241.897 65.9167 241.897C76.2959 241.897 86.5698 239.815 96.1303 235.775C97.4606 235.221 98.5775 234.254 99.3161 233.016C100.055 231.779 100.376 230.337 100.232 228.903L98.4415 210.322C98.3595 209.424 98.0993 208.551 97.6761 207.755C97.253 206.959 96.6753 206.256 95.977 205.686C95.2786 205.116 94.4736 204.691 93.609 204.435C92.7444 204.18 91.8377 204.1 90.9417 204.199L82.1102 205.225C71.3544 206.449 60.4943 206.449 49.7385 205.225Z" fill="#352F30"/>
<path d="M100.69 154.654C100.69 186.505 102.925 212.311 105.68 212.311C108.435 212.311 110.67 186.505 110.67 154.654C110.67 122.802 108.435 107.711 105.68 107.711C102.925 107.711 100.69 122.818 100.69 154.654Z" fill="#352F30"/>
<path d="M104.238 254.691C106.041 252.893 107.647 250.907 109.029 248.768C109.11 248.62 109.242 248.508 109.4 248.451C109.558 248.394 109.731 248.397 109.888 248.459C110.044 248.521 110.172 248.638 110.248 248.788C110.324 248.938 110.342 249.11 110.3 249.273C109.488 253.372 107.285 257.064 104.063 259.725C100.842 262.386 96.7996 263.852 92.6213 263.875C92.4606 263.874 92.3053 263.817 92.182 263.714C92.0587 263.611 91.9754 263.468 91.9463 263.31C91.9172 263.152 91.9443 262.989 92.0229 262.849C92.1014 262.709 92.2265 262.601 92.3764 262.543C96.8315 260.775 100.871 258.102 104.238 254.691Z" fill="#FC0013"/>
<path d="M101.018 18.6412C98.904 16.0513 96.518 13.696 93.9008 11.6158C93.7702 11.4752 93.6868 11.2972 93.6625 11.1068C93.6382 10.9164 93.6742 10.7232 93.7654 10.5543C93.8566 10.3854 93.9985 10.2493 94.171 10.1652C94.3435 10.081 94.5381 10.0531 94.7274 10.0852C99.967 11.6709 104.501 15.0121 107.567 19.5471C110.633 24.0822 112.045 29.5346 111.564 34.9878C111.541 35.1978 111.446 35.3934 111.295 35.5415C111.144 35.6897 110.947 35.7814 110.737 35.8012C110.527 35.821 110.316 35.7676 110.14 35.6501C109.965 35.5326 109.835 35.3581 109.773 35.1561C108.039 29.1006 105.057 23.475 101.018 18.6412Z" fill="white"/>
<path d="M110.201 24.9258C111.334 28.1335 111.767 31.5467 111.471 34.9358C111.448 35.1458 111.353 35.3414 111.203 35.4895C111.052 35.6377 110.855 35.7294 110.645 35.7492C110.434 35.769 110.223 35.7156 110.048 35.5981C109.872 35.4806 109.743 35.3061 109.681 35.1041C108.941 32.4652 107.952 29.9026 106.727 27.4512C107.89 26.7013 109.038 25.8441 110.201 24.9258Z" fill="#FFA74E"/>
<path d="M97.2783 159.766H113.242V150.827H97.2783V159.766Z" fill="#15B097"/>
<path d="M97.274 198.875H113.238V196.686H97.274V198.875Z" fill="#15B097"/>
<path d="M97.398 59.1967L73.4598 11.8712C73.261 11.501 73.2 11.0724 73.2875 10.6615C73.375 10.2506 73.6054 9.88399 73.9377 9.62694C74.2701 9.36989 74.6828 9.23902 75.1025 9.2576C75.5223 9.27617 75.9218 9.44299 76.2301 9.72839C84.9544 17.3813 99.6327 33.9575 100.719 58.2478C100.737 58.6467 100.62 59.04 100.386 59.364C100.153 59.6881 99.8174 59.9241 99.4334 60.0338C99.0494 60.1435 98.6397 60.1205 98.2704 59.9686C97.9011 59.8168 97.5937 59.5448 97.398 59.1967Z" fill="#A4F4E7"/>
<path d="M33.1832 237.613L40.4688 260.251C40.4688 260.251 28.2854 246.659 33.1832 237.613Z" fill="#A4F4E7"/>
<path d="M98.6715 237.613L91.3706 260.251C91.3706 260.251 103.569 246.659 98.6715 237.613Z" fill="#A4F4E7"/>
<path d="M74.8331 103.621H57.0325C55.2319 103.621 53.7723 105.081 53.7723 106.881V107.218C53.7723 109.018 55.2319 110.478 57.0325 110.478H74.8331C76.6336 110.478 78.0933 109.018 78.0933 107.218V106.881C78.0933 105.081 76.6336 103.621 74.8331 103.621Z" fill="#161414"/>
<path d="M37.8078 126.411C37.8078 125.542 38.1529 124.709 38.7671 124.095C39.3814 123.48 40.2145 123.135 41.0832 123.135L97.5463 123.135C97.0534 122.078 96.2685 121.183 95.2842 120.557C94.2998 119.93 93.157 119.598 91.9903 119.6L40.7465 119.6C39.1227 119.6 37.5655 120.245 36.4174 121.393C35.2692 122.541 34.6241 124.098 34.6241 125.722L34.6241 194.353C34.6243 195.463 34.9264 196.552 35.4979 197.504C36.0695 198.456 36.8891 199.234 37.869 199.756L37.8078 126.411Z" fill="#0B7B69"/>
<path d="M79.5835 263.157C70.0385 264.159 60.4148 264.159 50.8698 263.157C48.5178 262.922 46.3364 261.823 44.7476 260.073C43.1587 258.323 42.2752 256.046 42.2679 253.682V245.754C57.5038 247.823 72.9495 247.823 88.1853 245.754V253.744C88.1664 256.098 87.2774 258.362 85.6893 260.099C84.1012 261.837 81.9264 262.926 79.5835 263.157Z" fill="#0B7B69"/>
</g>
<defs>
<clipPath id="clip0_4159_37283">
<rect width="130.161" height="271.372" fill="white" transform="translate(0.839478 0.398438)"/>
</clipPath>
</defs>
</svg>
