<svg width="26" height="26" viewBox="0 0 26 26" fill="none" xmlns="http://www.w3.org/2000/svg">
<path d="M6.09336 24.5063C5.66595 24.5063 5.31152 24.1518 5.31152 23.7244V2.87558C5.31152 2.44818 5.66595 2.09375 6.09336 2.09375C6.52076 2.09375 6.87519 2.44818 6.87519 2.87558V23.7244C6.87519 24.1518 6.52076 24.5063 6.09336 24.5063Z" fill="#15B097"/>
<path d="M17.7687 18.2488H6.09336C5.66595 18.2488 5.31152 17.8943 5.31152 17.4669C5.31152 17.0395 5.66595 16.6851 6.09336 16.6851H17.7687C18.905 16.6851 19.4366 16.3828 19.5409 16.1222C19.6451 15.8616 19.4888 15.2778 18.6756 14.4751L17.4247 13.2242C16.9139 12.7759 16.6012 12.0984 16.5699 11.3478C16.5386 10.5555 16.8514 9.7737 17.4247 9.20036L18.6756 7.94943C19.4471 7.17802 19.6868 6.55255 19.5721 6.28152C19.4575 6.01048 18.8633 5.73945 17.7687 5.73945H6.09336C5.65553 5.73945 5.31152 5.38502 5.31152 4.95761C5.31152 4.53021 5.66595 4.17578 6.09336 4.17578H17.7687C20.0517 4.17578 20.7814 5.1244 21.0211 5.68732C21.2505 6.25024 21.4068 7.43863 19.7806 9.06484L18.5297 10.3158C18.2691 10.5764 18.1232 10.9412 18.1336 11.3061C18.144 11.6188 18.2691 11.9003 18.488 12.0984L19.7806 13.3806C21.3756 14.9755 21.2192 16.1639 20.9899 16.7372C20.7501 17.2897 20.01 18.2488 17.7687 18.2488Z" fill="#15B097"/>
</svg>
