<svg width="64" height="64" viewBox="0 0 64 64" fill="none" xmlns="http://www.w3.org/2000/svg">
<rect width="64" height="64" rx="32" fill="white" fill-opacity="0.2"/>
<path d="M35.6525 42.2258C35.3675 42.2258 35.0825 42.1208 34.8575 41.8958C34.4225 41.4608 34.4225 40.7408 34.8575 40.3058L43.1675 31.9958L34.8575 23.6858C34.4225 23.2508 34.4225 22.5308 34.8575 22.0958C35.2925 21.6608 36.0125 21.6608 36.4475 22.0958L45.5525 31.2008C45.9875 31.6358 45.9875 32.3558 45.5525 32.7908L36.4475 41.8958C36.2225 42.1208 35.9375 42.2258 35.6525 42.2258Z" fill="white"/>
<path d="M44.5028 33.123H19.2578C18.6428 33.123 18.1328 32.613 18.1328 31.998C18.1328 31.383 18.6428 30.873 19.2578 30.873H44.5028C45.1178 30.873 45.6278 31.383 45.6278 31.998C45.6278 32.613 45.1178 33.123 44.5028 33.123Z" fill="white"/>
</svg>
