<svg width="17" height="34" viewBox="0 0 17 34" fill="none" xmlns="http://www.w3.org/2000/svg">
<g clip-path="url(#clip0_4525_47826)">
<path d="M8.97208 0C9.2974 0.0646354 9.62541 0.121302 9.94894 0.196562C12.5506 0.800417 14.4738 2.9626 14.7409 5.58078C15.0698 8.80547 12.9566 11.6733 9.75267 12.3303C9.49815 12.3826 9.49815 12.5109 9.49815 12.6995C9.50084 14.7245 9.49994 16.7503 9.49994 18.7753C9.49994 22.7818 9.49994 26.7883 9.49994 30.7948C9.49994 31.4783 9.13429 31.9148 8.55266 31.9379C8.00777 31.96 7.5534 31.5651 7.50948 31.0259C7.49962 30.9046 7.5059 30.7824 7.5059 30.6611C7.5059 24.696 7.50411 18.7301 7.51038 12.7651C7.51038 12.4959 7.4584 12.3817 7.15548 12.3055C4.46689 11.6282 2.82415 9.92729 2.30346 7.23208C1.6815 4.02333 4.02506 0.7225 7.28364 0.142552C7.53368 0.0982812 7.78282 0.0478125 8.03286 0C8.34564 0 8.65931 0 8.97208 0Z" fill="#ED6300"/>
<path d="M7.23044 34.0006C6.67569 33.9537 6.12005 33.9129 5.5662 33.8598C4.09733 33.719 2.63204 33.5464 1.2519 32.9859C0.926576 32.854 0.609322 32.6663 0.342255 32.4414C-0.106741 32.0633 -0.121977 31.5391 0.344047 31.1885C0.735686 30.8937 1.19544 30.6572 1.65967 30.4926C2.95109 30.0366 4.30794 29.8825 5.66657 29.7577C5.85567 29.74 6.04835 29.6975 6.23297 29.7187C6.36292 29.7338 6.48301 29.8382 6.60758 29.9029C6.50273 29.9896 6.40683 30.1393 6.29302 30.1543C5.54111 30.2553 4.77575 30.2792 4.03191 30.4208C3.14736 30.5882 2.27804 30.837 1.40873 31.0743C1.18916 31.1345 0.981245 31.2673 0.790354 31.3983C0.381687 31.679 0.373622 31.965 0.789458 32.2253C1.08789 32.4121 1.41769 32.5662 1.75198 32.6787C3.30957 33.2046 4.93169 33.3728 6.56188 33.472C8.55233 33.5924 10.5446 33.5676 12.5162 33.2648C13.5469 33.1063 14.5578 32.8132 15.5723 32.5582C15.7936 32.5025 16.0024 32.3723 16.1969 32.2457C16.6289 31.9632 16.6361 31.687 16.2166 31.3983C16.0168 31.2611 15.7936 31.1487 15.5678 31.0583C14.4081 30.5908 13.1812 30.4182 11.948 30.2765C11.5376 30.2296 11.1226 30.2163 10.7149 30.1534C10.6136 30.1375 10.532 29.9914 10.4415 29.9055C10.5419 29.84 10.6468 29.7099 10.7409 29.7169C12.4347 29.848 14.1285 29.9994 15.7273 30.6271C16.0544 30.7555 16.3744 30.9388 16.645 31.1602C17.1236 31.5506 17.1128 32.0589 16.6477 32.4697C16.1055 32.9478 15.4253 33.1462 14.7451 33.3268C13.3246 33.7022 11.871 33.8527 10.4075 33.9324C10.1978 33.9439 9.98894 33.9776 9.78013 34.0015H7.23134L7.23044 34.0006Z" fill="#ED6300"/>
</g>
<defs>
<clipPath id="clip0_4525_47826">
<rect width="17" height="34" fill="white"/>
</clipPath>
</defs>
</svg>
