<svg width="25" height="25" viewBox="0 0 25 25" fill="none" xmlns="http://www.w3.org/2000/svg">
<path d="M20.7543 10.783C20.4889 6.57577 17.2449 4.17589 14.1356 3.67261C14.1356 3.67261 14.1356 3.67261 14.1268 3.67119C11.0262 3.16933 7.18347 4.41313 5.60439 8.32178C3.84315 12.6877 5.99742 16.9753 8.11851 19.7973C8.90453 20.8439 10.0266 21.4852 11.2211 21.6786C12.4156 21.8719 13.6827 21.6173 14.75 20.8707C17.653 18.8618 21.0484 15.4815 20.7543 10.783ZM12.4708 13.958C10.9425 13.7106 9.90446 12.2717 10.1518 10.7434C10.3992 9.21505 11.8381 8.17705 13.3664 8.42443C14.8947 8.6718 15.9327 10.1107 15.6854 11.639C15.438 13.1673 13.9991 14.2053 12.4708 13.958Z" fill="#ED6300"/>
</svg>
