<svg width="27" height="27" viewBox="0 0 27 27" fill="none" xmlns="http://www.w3.org/2000/svg">
<path d="M22.6166 9.56513C21.4904 4.60985 17.168 2.37891 13.3711 2.37891C13.3711 2.37891 13.3711 2.37891 13.3604 2.37891C9.57418 2.37891 5.241 4.59913 4.1148 9.5544C2.85989 15.0889 6.24921 19.776 9.31676 22.7256C10.4537 23.8196 11.9124 24.3666 13.3711 24.3666C14.8298 24.3666 16.2885 23.8196 17.4147 22.7256C20.4822 19.776 23.8715 15.0996 22.6166 9.56513ZM13.3711 14.9387C11.5048 14.9387 9.99248 13.4264 9.99248 11.5601C9.99248 9.69384 11.5048 8.18151 13.3711 8.18151C15.2374 8.18151 16.7497 9.69384 16.7497 11.5601C16.7497 13.4264 15.2374 14.9387 13.3711 14.9387Z" fill="#15B097"/>
</svg>
