<svg width="20" height="21" viewBox="0 0 20 21" fill="none" xmlns="http://www.w3.org/2000/svg">
<path d="M9.98867 19.826C5.65534 19.826 2.13867 16.301 2.13867 11.976C2.13867 10.4177 2.59701 8.90937 3.46367 7.60937C3.65534 7.32604 4.047 7.24271 4.33034 7.43437C4.61367 7.62604 4.697 8.01771 4.50534 8.30104C3.78034 9.38437 3.39701 10.6594 3.39701 11.9677C3.39701 15.6094 6.35534 18.5677 9.997 18.5677C13.6387 18.5677 16.597 15.6094 16.597 11.9677C16.597 8.32604 13.6303 5.36771 9.98867 5.36771C9.222 5.36771 8.472 5.47604 7.76367 5.69271C7.43034 5.79271 7.08034 5.60937 6.98034 5.27604C6.88034 4.94271 7.06367 4.59271 7.397 4.49271C8.23034 4.24271 9.097 4.10938 9.98867 4.10938C14.322 4.10938 17.8387 7.63437 17.8387 11.9594C17.8387 16.2844 14.322 19.826 9.98867 19.826Z" fill="#3563F0"/>
<path d="M6.54854 5.9292C6.40687 5.9292 6.25687 5.8792 6.14021 5.7792C5.87354 5.54587 5.84854 5.1542 6.07354 4.89587L8.48187 2.1292C8.70687 1.87087 9.10687 1.83754 9.36521 2.07087C9.62354 2.29587 9.64854 2.69587 9.42354 2.9542L7.01521 5.71253C6.89021 5.8542 6.71521 5.9292 6.54854 5.9292Z" fill="#3563F0"/>
<path d="M9.35623 7.98116C9.23123 7.98116 9.0979 7.93949 8.98957 7.86449L6.1729 5.80616C5.8979 5.60616 5.83957 5.21449 6.03957 4.93949C6.23957 4.65616 6.63123 4.59783 6.91457 4.79783L9.7229 6.84783C9.9979 7.04783 10.0646 7.43949 9.85623 7.72283C9.73957 7.89783 9.5479 7.98116 9.35623 7.98116Z" fill="#3563F0"/>
</svg>
