<svg width="120" height="120" viewBox="0 0 120 120" fill="none" xmlns="http://www.w3.org/2000/svg">
<rect x="1" y="1" width="118" height="118" rx="10" stroke="#7D7CFB" stroke-width="2" stroke-dasharray="12 12"/>
<path d="M75.6111 62.3891L45.3889 62.3891C44.3563 62.3891 43.5 61.5328 43.5 60.5002C43.5 59.4676 44.3563 58.6113 45.3889 58.6113L75.6111 58.6113C76.6437 58.6113 77.5 59.4676 77.5 60.5002C77.5 61.5328 76.6437 62.3891 75.6111 62.3891Z" fill="#7D7CFB"/>
<path d="M60.4983 77.5C59.4657 77.5 58.6094 76.6437 58.6094 75.6111L58.6094 45.3889C58.6094 44.3563 59.4657 43.5 60.4983 43.5C61.5309 43.5 62.3872 44.3563 62.3872 45.3889L62.3872 75.6111C62.3872 76.6437 61.5309 77.5 60.4983 77.5Z" fill="#7D7CFB"/>
<path d="M43.076 104V93.0909H45.0522V102.343H49.8569V104H43.076ZM55.0558 104.16C54.2567 104.16 53.5643 103.984 52.9783 103.632C52.3924 103.281 51.9379 102.789 51.6147 102.157C51.2951 101.525 51.1353 100.786 51.1353 99.9411C51.1353 99.0959 51.2951 98.3555 51.6147 97.7198C51.9379 97.0842 52.3924 96.5906 52.9783 96.239C53.5643 95.8874 54.2567 95.7116 55.0558 95.7116C55.8548 95.7116 56.5472 95.8874 57.1332 96.239C57.7191 96.5906 58.1719 97.0842 58.4915 97.7198C58.8146 98.3555 58.9762 99.0959 58.9762 99.9411C58.9762 100.786 58.8146 101.525 58.4915 102.157C58.1719 102.789 57.7191 103.281 57.1332 103.632C56.5472 103.984 55.8548 104.16 55.0558 104.16ZM55.0664 102.615C55.4996 102.615 55.8619 102.496 56.1531 102.258C56.4442 102.017 56.6609 101.694 56.8029 101.289C56.9485 100.884 57.0213 100.433 57.0213 99.9357C57.0213 99.435 56.9485 98.9822 56.8029 98.5774C56.6609 98.169 56.4442 97.8441 56.1531 97.6026C55.8619 97.3612 55.4996 97.2404 55.0664 97.2404C54.6225 97.2404 54.2532 97.3612 53.9585 97.6026C53.6673 97.8441 53.4489 98.169 53.3033 98.5774C53.1612 98.9822 53.0902 99.435 53.0902 99.9357C53.0902 100.433 53.1612 100.884 53.3033 101.289C53.4489 101.694 53.6673 102.017 53.9585 102.258C54.2532 102.496 54.6225 102.615 55.0664 102.615ZM64.1711 107.239C63.4786 107.239 62.8838 107.145 62.3866 106.956C61.8895 106.772 61.49 106.523 61.1881 106.211C60.8863 105.898 60.6768 105.552 60.5596 105.172L62.2961 104.751C62.3742 104.911 62.4878 105.069 62.637 105.225C62.7861 105.385 62.9868 105.516 63.2389 105.619C63.4946 105.726 63.816 105.779 64.203 105.779C64.7499 105.779 65.2027 105.646 65.5613 105.38C65.92 105.117 66.0993 104.684 66.0993 104.08V102.53H66.0035C65.904 102.729 65.7584 102.933 65.5667 103.142C65.3785 103.352 65.1281 103.528 64.8156 103.67C64.5067 103.812 64.1178 103.883 63.6491 103.883C63.0205 103.883 62.4506 103.735 61.9392 103.441C61.4314 103.142 61.0265 102.699 60.7247 102.109C60.4264 101.516 60.2773 100.774 60.2773 99.8825C60.2773 98.984 60.4264 98.2259 60.7247 97.608C61.0265 96.9865 61.4331 96.516 61.9445 96.1964C62.4559 95.8732 63.0258 95.7116 63.6544 95.7116C64.1338 95.7116 64.528 95.7933 64.8369 95.9567C65.1494 96.1165 65.398 96.31 65.5827 96.5373C65.7673 96.761 65.9076 96.9723 66.0035 97.1712H66.11V95.8182H68.0116V104.133C68.0116 104.833 67.8447 105.412 67.5109 105.87C67.1771 106.328 66.7208 106.67 66.142 106.898C65.5631 107.125 64.9062 107.239 64.1711 107.239ZM64.1871 102.37C64.5954 102.37 64.9434 102.271 65.2311 102.072C65.5187 101.873 65.7371 101.587 65.8863 101.214C66.0354 100.841 66.11 100.394 66.11 99.8718C66.11 99.3569 66.0354 98.9059 65.8863 98.5188C65.7407 98.1317 65.5241 97.8317 65.2364 97.6186C64.9523 97.402 64.6025 97.2937 64.1871 97.2937C63.7574 97.2937 63.3987 97.4055 63.1111 97.6293C62.8234 97.853 62.6068 98.1602 62.4612 98.5508C62.3156 98.9379 62.2428 99.3782 62.2428 99.8718C62.2428 100.373 62.3156 100.811 62.4612 101.188C62.6104 101.56 62.8287 101.852 63.1164 102.061C63.4076 102.267 63.7645 102.37 64.1871 102.37ZM73.5567 104.16C72.7577 104.16 72.0653 103.984 71.4793 103.632C70.8934 103.281 70.4388 102.789 70.1157 102.157C69.7961 101.525 69.6363 100.786 69.6363 99.9411C69.6363 99.0959 69.7961 98.3555 70.1157 97.7198C70.4388 97.0842 70.8934 96.5906 71.4793 96.239C72.0653 95.8874 72.7577 95.7116 73.5567 95.7116C74.3557 95.7116 75.0482 95.8874 75.6341 96.239C76.2201 96.5906 76.6729 97.0842 76.9925 97.7198C77.3156 98.3555 77.4772 99.0959 77.4772 99.9411C77.4772 100.786 77.3156 101.525 76.9925 102.157C76.6729 102.789 76.2201 103.281 75.6341 103.632C75.0482 103.984 74.3557 104.16 73.5567 104.16ZM73.5674 102.615C74.0006 102.615 74.3628 102.496 74.654 102.258C74.9452 102.017 75.1618 101.694 75.3039 101.289C75.4495 100.884 75.5223 100.433 75.5223 99.9357C75.5223 99.435 75.4495 98.9822 75.3039 98.5774C75.1618 98.169 74.9452 97.8441 74.654 97.6026C74.3628 97.3612 74.0006 97.2404 73.5674 97.2404C73.1235 97.2404 72.7542 97.3612 72.4594 97.6026C72.1682 97.8441 71.9498 98.169 71.8042 98.5774C71.6622 98.9822 71.5912 99.435 71.5912 99.9357C71.5912 100.433 71.6622 100.884 71.8042 101.289C71.9498 101.694 72.1682 102.017 72.4594 102.258C72.7542 102.496 73.1235 102.615 73.5674 102.615Z" fill="#7D7CFB"/>
</svg>
