<svg width="7" height="7" viewBox="0 0 7 7" fill="none" xmlns="http://www.w3.org/2000/svg">
<path d="M5.01512 4.97716C4.5318 4.97716 4.08586 4.74988 3.79529 4.34998C3.72624 4.25504 3.74638 4.11983 3.84132 4.0479C3.93626 3.97598 4.07148 3.99899 4.14341 4.09393C4.35342 4.37875 4.66989 4.54273 5.01512 4.54273C5.61641 4.54273 6.10837 4.05365 6.10837 3.44949C6.10837 2.84533 5.61929 2.35625 5.01512 2.35625C4.6066 2.35625 4.22108 2.57489 4.01106 2.923L3.24867 4.19175C2.96097 4.67221 2.43449 4.96854 1.87636 4.96854C1.03628 4.96854 0.351562 4.28381 0.351562 3.44373C0.351562 2.60366 1.03628 1.91895 1.87636 1.91895C2.35969 1.91895 2.80561 2.14622 3.09619 2.54612C3.16523 2.64106 3.14509 2.77629 3.05015 2.84822C2.95234 2.91726 2.82 2.89711 2.74808 2.80218C2.53806 2.51736 2.22159 2.35337 1.87636 2.35337C1.27507 2.35337 0.783107 2.84245 0.783107 3.44661C0.783107 4.05077 1.2722 4.53987 1.87636 4.53987C2.28489 4.53987 2.6704 4.32121 2.88041 3.9731L3.64281 2.70437C3.9305 2.22392 4.45699 1.92758 5.01512 1.92758C5.8552 1.92758 6.53991 2.6123 6.53991 3.45237C6.53991 4.29244 5.8552 4.97716 5.01512 4.97716Z" fill="#292D32"/>
</svg>
