<svg

        width="20"

        height="21"

        viewBox="0 0 20 21"

        fill="none"

        xmlns="http://www.w3.org/2000/svg"

      >

        <path

          d="M12.4974 19.4577H7.4974C2.9724 19.4577 1.03906 17.5243 1.03906 12.9993V7.99935C1.03906 3.47435 2.9724 1.54102 7.4974 1.54102H12.4974C17.0224 1.54102 18.9557 3.47435 18.9557 7.99935V12.9993C18.9557 17.5243 17.0224 19.4577 12.4974 19.4577ZM7.4974 2.79102C3.65573 2.79102 2.28906 4.15768 2.28906 7.99935V12.9993C2.28906 16.841 3.65573 18.2077 7.4974 18.2077H12.4974C16.3391 18.2077 17.7057 16.841 17.7057 12.9993V7.99935C17.7057 4.15768 16.3391 2.79102 12.4974 2.79102H7.4974Z"

          fill="#1248ED"

        />

        <path

          d="M11.0568 14.0688C10.8984 14.0688 10.7401 14.0104 10.6151 13.8854L7.67344 10.9437C7.43177 10.7021 7.43177 10.3021 7.67344 10.0604L10.6151 7.11875C10.8568 6.87708 11.2568 6.87708 11.4984 7.11875C11.7401 7.36042 11.7401 7.76042 11.4984 8.00208L8.99844 10.5021L11.4984 13.0021C11.7401 13.2437 11.7401 13.6437 11.4984 13.8854C11.3818 14.0104 11.2234 14.0688 11.0568 14.0688Z"

          fill="#1248ED"

        />

      </svg>