<svg width="36" height="35" viewBox="0 0 36 35" fill="none" xmlns="http://www.w3.org/2000/svg">
<path d="M26.1035 33.1745C24.4556 33.1745 22.7202 32.7807 20.9264 32.0224C19.1764 31.2786 17.4118 30.2578 15.691 29.0182C13.9848 27.7641 12.3368 26.3641 10.7764 24.8328C9.2306 23.2724 7.8306 21.6245 6.59102 19.9328C5.33685 18.1828 4.3306 16.4328 3.61602 14.7411C2.85768 12.9328 2.47852 11.1828 2.47852 9.5349C2.47852 8.3974 2.68268 7.31823 3.07643 6.31198C3.48477 5.27656 4.14102 4.31406 5.0306 3.48281C6.15352 2.37448 7.43685 1.82031 8.80768 1.82031C9.37643 1.82031 9.95976 1.95156 10.4556 2.1849C11.0243 2.4474 11.5056 2.84115 11.8556 3.36615L15.2389 8.1349C15.5452 8.55781 15.7785 8.96615 15.9389 9.37448C16.1285 9.81198 16.2306 10.2495 16.2306 10.6724C16.2306 11.2266 16.0702 11.7661 15.7639 12.2766C15.5452 12.6703 15.2098 13.0932 14.7868 13.5161L13.7952 14.5516C13.8098 14.5953 13.8243 14.6245 13.8389 14.6536C14.0139 14.9599 14.3639 15.4849 15.0348 16.2724C15.7493 17.0891 16.4202 17.8328 17.091 18.5182C17.9514 19.3641 18.666 20.0349 19.3368 20.5891C20.1681 21.2891 20.7077 21.6391 21.0285 21.7995L20.9993 21.8724L22.0639 20.8224C22.516 20.3703 22.9535 20.0349 23.3764 19.8161C24.1785 19.3203 25.1993 19.2328 26.2202 19.6557C26.5993 19.8161 27.0077 20.0349 27.4452 20.3411L32.2868 23.7828C32.8264 24.1474 33.2202 24.6141 33.4535 25.1682C33.6723 25.7224 33.7743 26.2328 33.7743 26.7432C33.7743 27.4432 33.6139 28.1432 33.3077 28.7995C33.0014 29.4557 32.6223 30.0245 32.141 30.5495C31.3098 31.4682 30.4056 32.1245 29.3556 32.5474C28.3493 32.9557 27.2556 33.1745 26.1035 33.1745ZM8.80768 4.00781C8.0056 4.00781 7.26185 4.35781 6.54727 5.05781C5.87643 5.6849 5.40977 6.37031 5.1181 7.11406C4.81185 7.8724 4.66602 8.67448 4.66602 9.5349C4.66602 10.8911 4.98685 12.3641 5.62852 13.8807C6.28477 15.4266 7.20352 17.0307 8.37018 18.6349C9.53685 20.2391 10.8639 21.7995 12.3223 23.2724C13.7806 24.7161 15.3556 26.0578 16.9743 27.2391C18.5493 28.3911 20.1681 29.3245 21.7723 29.9953C24.266 31.0599 26.5993 31.3078 28.5243 30.5057C29.2681 30.1995 29.9243 29.7328 30.5223 29.062C30.8577 28.6974 31.1202 28.3036 31.3389 27.837C31.5139 27.4724 31.6014 27.0932 31.6014 26.7141C31.6014 26.4807 31.5577 26.2474 31.441 25.9849C31.3973 25.8974 31.3098 25.737 31.0327 25.5474L26.191 22.1057C25.8993 21.9016 25.6368 21.7557 25.3889 21.6536C25.0681 21.5224 24.9368 21.3911 24.441 21.6974C24.1493 21.8432 23.8868 22.062 23.5952 22.3536L22.4868 23.4474C21.9181 24.0016 21.0431 24.1328 20.3723 23.8849L19.9785 23.7099C19.3806 23.3891 18.6806 22.8932 17.9077 22.237C17.2077 21.6391 16.4493 20.9391 15.5306 20.0349C14.816 19.3057 14.1014 18.5328 13.3577 17.6724C12.6723 16.8703 12.1764 16.1849 11.8702 15.6161L11.6952 15.1786C11.6077 14.8432 11.5785 14.6536 11.5785 14.4495C11.5785 13.9245 11.7681 13.4578 12.1327 13.0932L13.2264 11.9557C13.5181 11.6641 13.7368 11.387 13.8827 11.1391C13.9993 10.9495 14.0431 10.7891 14.0431 10.6432C14.0431 10.5266 13.9993 10.3516 13.9264 10.1766C13.8243 9.94323 13.6639 9.68073 13.4598 9.40365L10.0764 4.62031C9.9306 4.41615 9.7556 4.27031 9.53685 4.16823C9.30352 4.06615 9.0556 4.00781 8.80768 4.00781ZM20.9993 21.887L20.766 22.8786L21.1598 21.8578C21.0868 21.8432 21.0285 21.8578 20.9993 21.887Z" fill="#FF8F6B"/>
</svg>
