<svg width="7" height="7" viewBox="0 0 7 7" fill="none" xmlns="http://www.w3.org/2000/svg">
<path d="M5.75601 4.24358C5.31871 4.24358 4.96484 3.88972 4.96484 3.45242C4.96484 3.01512 5.31871 2.66125 5.75601 2.66125C6.19331 2.66125 6.54717 3.01512 6.54717 3.45242C6.54717 3.88972 6.19331 4.24358 5.75601 4.24358ZM5.75601 3.0928C5.5575 3.0928 5.39639 3.25391 5.39639 3.45242C5.39639 3.65093 5.5575 3.81204 5.75601 3.81204C5.95452 3.81204 6.11563 3.65093 6.11563 3.45242C6.11563 3.25391 5.95452 3.0928 5.75601 3.0928Z" fill="#292D32"/>
<path d="M5.75601 1.94195C5.31871 1.94195 4.96484 1.58808 4.96484 1.15078C4.96484 0.713486 5.31871 0.359619 5.75601 0.359619C6.19331 0.359619 6.54717 0.713486 6.54717 1.15078C6.54717 1.58808 6.19331 1.94195 5.75601 1.94195ZM5.75601 0.791164C5.5575 0.791164 5.39639 0.952273 5.39639 1.15078C5.39639 1.34929 5.5575 1.5104 5.75601 1.5104C5.95452 1.5104 6.11563 1.34929 6.11563 1.15078C6.11563 0.952273 5.95452 0.791164 5.75601 0.791164Z" fill="#292D32"/>
<path d="M5.75601 6.54522C5.31871 6.54522 4.96484 6.19135 4.96484 5.75406C4.96484 5.31676 5.31871 4.96289 5.75601 4.96289C6.19331 4.96289 6.54717 5.31676 6.54717 5.75406C6.54717 6.19135 6.19331 6.54522 5.75601 6.54522ZM5.75601 5.39444C5.5575 5.39444 5.39639 5.55554 5.39639 5.75406C5.39639 5.95257 5.5575 6.11368 5.75601 6.11368C5.95452 6.11368 6.11563 5.95257 6.11563 5.75406C6.11563 5.55554 5.95452 5.39444 5.75601 5.39444Z" fill="#292D32"/>
<path d="M1.15054 4.24358C0.713241 4.24358 0.359375 3.88972 0.359375 3.45242C0.359375 3.01512 0.713241 2.66125 1.15054 2.66125C1.58784 2.66125 1.9417 3.01512 1.9417 3.45242C1.9417 3.88972 1.58784 4.24358 1.15054 4.24358ZM1.15054 3.0928C0.952029 3.0928 0.790919 3.25391 0.790919 3.45242C0.790919 3.65093 0.952029 3.81204 1.15054 3.81204C1.34905 3.81204 1.51016 3.65093 1.51016 3.45242C1.51016 3.25391 1.34905 3.0928 1.15054 3.0928Z" fill="#292D32"/>
<path d="M5.17985 3.66812H1.72749C1.60954 3.66812 1.51172 3.5703 1.51172 3.45234C1.51172 3.33439 1.60954 3.23657 1.72749 3.23657H5.17985C5.2978 3.23657 5.39562 3.33439 5.39562 3.45234C5.39562 3.5703 5.2978 3.66812 5.17985 3.66812Z" fill="#292D32"/>
<path d="M5.17886 5.96974H4.02808C3.33185 5.96974 2.94922 5.58711 2.94922 4.89088V2.01392C2.94922 1.31769 3.33185 0.935059 4.02808 0.935059H5.17886C5.29682 0.935059 5.39464 1.03288 5.39464 1.15083C5.39464 1.26879 5.29682 1.3666 5.17886 1.3666H4.02808C3.57352 1.3666 3.38076 1.55936 3.38076 2.01392V4.89088C3.38076 5.34544 3.57352 5.5382 4.02808 5.5382H5.17886C5.29682 5.5382 5.39464 5.63602 5.39464 5.75397C5.39464 5.87193 5.29682 5.96974 5.17886 5.96974Z" fill="#292D32"/>
</svg>
