<svg width="26" height="26" viewBox="0 0 26 26" fill="none" xmlns="http://www.w3.org/2000/svg">
<path d="M4.33203 7.58333H21.6654M10.832 11.9167V18.4167M15.1654 11.9167V18.4167M5.41536 7.58333L6.4987 20.5833C6.4987 21.158 6.72697 21.7091 7.1333 22.1154C7.53963 22.5217 8.09073 22.75 8.66536 22.75H17.332C17.9067 22.75 18.4578 22.5217 18.8641 22.1154C19.2704 21.7091 19.4987 21.158 19.4987 20.5833L20.582 7.58333M9.7487 7.58333V4.33333C9.7487 4.04602 9.86283 3.77047 10.066 3.5673C10.2692 3.36414 10.5447 3.25 10.832 3.25H15.1654C15.4527 3.25 15.7282 3.36414 15.9314 3.5673C16.1346 3.77047 16.2487 4.04602 16.2487 4.33333V7.58333" stroke="#FC0013" stroke-width="1.625" stroke-linecap="round" stroke-linejoin="round"/>
</svg>
