<svg width="7" height="7" viewBox="0 0 7 7" fill="none" xmlns="http://www.w3.org/2000/svg">
<path d="M3.14136 6.54471C3.00327 6.54471 2.86519 6.51019 2.7386 6.44114C2.48255 6.29729 2.33006 6.04124 2.33006 5.75066V4.2115C2.33006 4.06477 2.23512 3.84899 2.14593 3.73679L1.05269 2.58889C0.871439 2.40764 0.730469 2.09117 0.730469 1.85813V1.19069C0.730469 0.727495 1.08146 0.36499 1.52739 0.36499H5.36525C5.80543 0.36499 6.16218 0.721739 6.16218 1.16191V1.8006C6.16218 2.10268 5.98093 2.45079 5.80831 2.62053C5.72488 2.70396 5.58679 2.70396 5.50336 2.62053C5.41993 2.5371 5.41993 2.399 5.50336 2.31557C5.60981 2.20912 5.73063 1.97034 5.73063 1.8006V1.16191C5.73063 0.960527 5.56664 0.796535 5.36525 0.796535H1.52739C1.32313 0.796535 1.16201 0.96916 1.16201 1.19069V1.85813C1.16201 1.96458 1.24832 2.17461 1.36052 2.28681L2.46817 3.45197C2.61489 3.63322 2.75872 3.93819 2.75872 4.2115V5.75066C2.75872 5.94054 2.88819 6.03261 2.94573 6.06425C3.06944 6.1333 3.21618 6.13043 3.33125 6.06138L3.73402 5.80246C3.81745 5.75355 3.89801 5.59531 3.89801 5.48886C3.89801 5.3709 3.99582 5.27309 4.11378 5.27309C4.23174 5.27309 4.32955 5.3709 4.32955 5.48886C4.32955 5.74779 4.16844 6.04412 3.96417 6.16783L3.56429 6.42675C3.43482 6.50443 3.28809 6.54471 3.14136 6.54471Z" fill="#292D32"/>
<path d="M4.62078 4.96811C3.9936 4.96811 3.48438 4.45889 3.48438 3.83172C3.48438 3.20454 3.9936 2.69531 4.62078 2.69531C5.24796 2.69531 5.75718 3.20454 5.75718 3.83172C5.75718 4.45889 5.24796 4.96811 4.62078 4.96811ZM4.62078 3.12686C4.23239 3.12686 3.91592 3.44333 3.91592 3.83172C3.91592 4.22011 4.23239 4.53657 4.62078 4.53657C5.00917 4.53657 5.32564 4.22011 5.32564 3.83172C5.32564 3.44333 5.00917 3.12686 4.62078 3.12686Z" fill="#292D32"/>
<path d="M5.71368 5.14076C5.65902 5.14076 5.60436 5.12062 5.56121 5.07747L5.27351 4.78977C5.19008 4.70634 5.19008 4.56825 5.27351 4.48482C5.35694 4.40138 5.49504 4.40138 5.57847 4.48482L5.86617 4.77251C5.9496 4.85594 5.9496 4.99404 5.86617 5.07747C5.82589 5.11775 5.76834 5.14076 5.71368 5.14076Z" fill="#292D32"/>
</svg>
