<svg width="36" height="36" viewBox="0 0 36 36" fill="none" xmlns="http://www.w3.org/2000/svg">
<path d="M15.2586 32.5573C8.41904 32.5573 2.86279 27.001 2.86279 20.1615C2.86279 13.3219 8.41904 7.76562 15.2586 7.76562C22.0982 7.76562 27.6545 13.3219 27.6545 20.1615C27.6545 27.001 22.0982 32.5573 15.2586 32.5573ZM15.2586 9.95312C9.62946 9.95312 5.05029 14.5323 5.05029 20.1615C5.05029 25.7906 9.62946 30.3698 15.2586 30.3698C20.8878 30.3698 25.467 25.7906 25.467 20.1615C25.467 14.5323 20.8878 9.95312 15.2586 9.95312Z" fill="#FF8F6B"/>
<path d="M23.6463 12.8687C23.3692 12.8687 23.0921 12.7667 22.8733 12.5479C22.4504 12.125 22.4504 11.425 22.8733 11.0021L30.8942 2.98125C31.3171 2.55833 32.0171 2.55833 32.44 2.98125C32.8629 3.40417 32.8629 4.10417 32.44 4.52708L24.4192 12.5479C24.2004 12.7667 23.9233 12.8687 23.6463 12.8687Z" fill="#FF8F6B"/>
<path d="M31.6681 14.3288C31.0702 14.3288 30.5744 13.8329 30.5744 13.235V4.84961H22.189C21.591 4.84961 21.0952 4.35378 21.0952 3.75586C21.0952 3.15794 21.591 2.66211 22.189 2.66211H31.6681C32.266 2.66211 32.7619 3.15794 32.7619 3.75586V13.235C32.7619 13.8329 32.266 14.3288 31.6681 14.3288Z" fill="#FF8F6B"/>
</svg>
