<svg width="7" height="7" viewBox="0 0 7 7" fill="none" xmlns="http://www.w3.org/2000/svg">
<path d="M2.38291 6.54472H1.22062C0.642347 6.54472 0.363281 6.27716 0.363281 5.72479V1.17919C0.363281 0.62681 0.645224 0.359253 1.22062 0.359253H2.38291C2.96118 0.359253 3.24024 0.62681 3.24024 1.17919V5.72479C3.24024 6.27716 2.9583 6.54472 2.38291 6.54472ZM1.22062 0.790797C0.855242 0.790797 0.794826 0.888614 0.794826 1.17919V5.72479C0.794826 6.01536 0.855242 6.11318 1.22062 6.11318H2.38291C2.74828 6.11318 2.8087 6.01536 2.8087 5.72479V1.17919C2.8087 0.888614 2.74828 0.790797 2.38291 0.790797H1.22062Z" fill="#292D32"/>
<path d="M5.6915 3.23622H4.52921C3.95094 3.23622 3.67188 2.98017 3.67188 2.4508V1.14466C3.67188 0.615303 3.95382 0.359253 4.52921 0.359253H5.6915C6.26977 0.359253 6.54884 0.615303 6.54884 1.14466V2.44793C6.54884 2.98017 6.2669 3.23622 5.6915 3.23622ZM4.52921 0.790797C4.1437 0.790797 4.10342 0.900122 4.10342 1.14466V2.44793C4.10342 2.69535 4.1437 2.80179 4.52921 2.80179H5.6915C6.07702 2.80179 6.11729 2.69247 6.11729 2.44793V1.14466C6.11729 0.897245 6.07702 0.790797 5.6915 0.790797H4.52921Z" fill="#292D32"/>
<path d="M5.6915 6.54469H4.52921C3.95094 6.54469 3.67188 6.26275 3.67188 5.68735V4.52506C3.67188 3.94679 3.95382 3.66772 4.52921 3.66772H5.6915C6.26977 3.66772 6.54884 3.94967 6.54884 4.52506V5.68735C6.54884 6.26275 6.2669 6.54469 5.6915 6.54469ZM4.52921 4.09927C4.18973 4.09927 4.10342 4.18558 4.10342 4.52506V5.68735C4.10342 6.02683 4.18973 6.11314 4.52921 6.11314H5.6915C6.03098 6.11314 6.11729 6.02683 6.11729 5.68735V4.52506C6.11729 4.18558 6.03098 4.09927 5.6915 4.09927H4.52921Z" fill="#292D32"/>
</svg>
