<svg width="14" height="15" viewBox="0 0 14 15" fill="none" xmlns="http://www.w3.org/2000/svg">
<path d="M6.99154 13.7702C3.53237 13.7702 0.720703 10.9585 0.720703 7.49935C0.720703 4.04018 3.53237 1.22852 6.99154 1.22852C10.4507 1.22852 13.2624 4.04018 13.2624 7.49935C13.2624 10.9585 10.4507 13.7702 6.99154 13.7702ZM6.99154 2.10352C4.01654 2.10352 1.5957 4.52435 1.5957 7.49935C1.5957 10.4743 4.01654 12.8952 6.99154 12.8952C9.96654 12.8952 12.3874 10.4743 12.3874 7.49935C12.3874 4.52435 9.96654 2.10352 6.99154 2.10352Z" fill="#C03744"/>
<path d="M6.99365 8.52116C6.75449 8.52116 6.55615 8.32283 6.55615 8.08366V5.16699C6.55615 4.92783 6.75449 4.72949 6.99365 4.72949C7.23282 4.72949 7.43115 4.92783 7.43115 5.16699V8.08366C7.43115 8.32283 7.23282 8.52116 6.99365 8.52116Z" fill="#C03744"/>
<path d="M6.99691 10.4157C6.92107 10.4157 6.84524 10.3982 6.77524 10.369C6.70524 10.3399 6.64107 10.299 6.58274 10.2465C6.53024 10.1882 6.48941 10.1299 6.46024 10.054C6.43107 9.98404 6.41357 9.9082 6.41357 9.83237C6.41357 9.75654 6.43107 9.6807 6.46024 9.6107C6.48941 9.5407 6.53024 9.47654 6.58274 9.4182C6.64107 9.3657 6.70524 9.32487 6.77524 9.2957C6.91524 9.23737 7.07857 9.23737 7.21857 9.2957C7.28857 9.32487 7.35274 9.3657 7.41107 9.4182C7.46357 9.47654 7.50441 9.5407 7.53357 9.6107C7.56274 9.6807 7.58024 9.75654 7.58024 9.83237C7.58024 9.9082 7.56274 9.98404 7.53357 10.054C7.50441 10.1299 7.46357 10.1882 7.41107 10.2465C7.35274 10.299 7.28857 10.3399 7.21857 10.369C7.14857 10.3982 7.07274 10.4157 6.99691 10.4157Z" fill="#C03744"/>
</svg>
