<svg width="7" height="7" viewBox="0 0 7 7" fill="none" xmlns="http://www.w3.org/2000/svg">
<path d="M5.59422 3.38019H4.6103C4.49235 3.38019 4.39453 3.28237 4.39453 3.16441V1.15342C4.39453 0.940521 4.47796 0.742011 4.62757 0.592409C4.77717 0.442807 4.97568 0.359375 5.18857 0.359375H5.19145C5.55107 0.362252 5.89055 0.503223 6.14948 0.759273C6.40841 1.02108 6.54938 1.36631 6.54938 1.72593V2.42216C6.55225 2.99467 6.16674 3.38019 5.59422 3.38019ZM4.82608 2.94864H5.59422C5.92795 2.94864 6.12071 2.75588 6.12071 2.42216V1.72593C6.12071 1.47851 6.02289 1.2426 5.8474 1.06423C5.6719 0.891613 5.43599 0.793796 5.19145 0.790919C5.19145 0.790919 5.19145 0.790919 5.18857 0.790919C5.09363 0.790919 5.00157 0.82832 4.93252 0.897367C4.86348 0.966414 4.82608 1.0556 4.82608 1.15342V2.94864Z" fill="#292D32"/>
<path d="M2.59293 6.71171C2.45771 6.71171 2.33112 6.65992 2.23618 6.56211L1.75861 6.08165C1.73272 6.05576 1.69244 6.05289 1.66367 6.0759L1.16883 6.44415C1.01635 6.55923 0.814964 6.57937 0.642347 6.49306C0.469729 6.40675 0.363281 6.23413 0.363281 6.04138V1.72593C0.363281 0.85709 0.860996 0.359375 1.72984 0.359375H5.18219C5.30015 0.359375 5.39797 0.457192 5.39797 0.575147C5.39797 0.693103 5.30015 0.790919 5.18219 0.790919C4.98368 0.790919 4.82257 0.952029 4.82257 1.15054V6.04138C4.82257 6.23413 4.71613 6.40675 4.54351 6.49306C4.37089 6.57937 4.1695 6.56211 4.01702 6.44703L3.52506 6.07878C3.49629 6.05576 3.45602 6.06152 3.433 6.08453L2.94967 6.56786C2.85473 6.65992 2.72814 6.71171 2.59293 6.71171ZM1.70395 5.62997C1.83629 5.62997 1.96575 5.67888 2.06357 5.77957L2.54114 6.26003C2.5584 6.27729 2.58142 6.28016 2.59293 6.28016C2.60444 6.28016 2.62745 6.27729 2.64471 6.26003L3.12804 5.7767C3.30641 5.59832 3.58836 5.58106 3.78687 5.73354L4.27595 6.09891C4.3076 6.12193 4.33637 6.1133 4.35075 6.10467C4.36514 6.09604 4.39103 6.07878 4.39103 6.04138V1.15054C4.39103 1.02108 4.42268 0.897367 4.47734 0.790919H1.72984C1.09115 0.790919 0.794826 1.08725 0.794826 1.72593V6.04138C0.794826 6.08165 0.820718 6.09892 0.835103 6.10755C0.852365 6.11618 0.881135 6.12193 0.909904 6.09891L1.40186 5.73066C1.49105 5.66449 1.5975 5.62997 1.70395 5.62997Z" fill="#292D32"/>
<path d="M3.45777 3.9584H2.59468C2.47672 3.9584 2.37891 3.86058 2.37891 3.74263C2.37891 3.62467 2.47672 3.52686 2.59468 3.52686H3.45777C3.57572 3.52686 3.67354 3.62467 3.67354 3.74263C3.67354 3.86058 3.57572 3.9584 3.45777 3.9584Z" fill="#292D32"/>
<path d="M3.45777 2.80777H2.59468C2.47672 2.80777 2.37891 2.70995 2.37891 2.59199C2.37891 2.47404 2.47672 2.37622 2.59468 2.37622H3.45777C3.57572 2.37622 3.67354 2.47404 3.67354 2.59199C3.67354 2.70995 3.57572 2.80777 3.45777 2.80777Z" fill="#292D32"/>
<path d="M1.72129 2.87959C1.56306 2.87959 1.43359 2.75013 1.43359 2.5919C1.43359 2.43366 1.56306 2.3042 1.72129 2.3042C1.87952 2.3042 2.00899 2.43366 2.00899 2.5919C2.00899 2.75013 1.87952 2.87959 1.72129 2.87959Z" fill="#292D32"/>
<path d="M1.72129 4.03047C1.56306 4.03047 1.43359 3.90101 1.43359 3.74277C1.43359 3.58454 1.56306 3.45508 1.72129 3.45508C1.87952 3.45508 2.00899 3.58454 2.00899 3.74277C2.00899 3.90101 1.87952 4.03047 1.72129 4.03047Z" fill="#292D32"/>
</svg>
