<svg width="36" height="36" viewBox="0 0 36 36" fill="none" xmlns="http://www.w3.org/2000/svg">
<path d="M18.2883 21.4253C15.182 21.4253 12.6445 18.9023 12.6445 15.7815C12.6445 12.6607 15.182 10.1523 18.2883 10.1523C21.3945 10.1523 23.932 12.6753 23.932 15.7961C23.932 18.9169 21.3945 21.4253 18.2883 21.4253ZM18.2883 12.3398C16.3924 12.3398 14.832 13.8857 14.832 15.7961C14.832 17.7065 16.3779 19.2523 18.2883 19.2523C20.1987 19.2523 21.7445 17.7065 21.7445 15.7961C21.7445 13.8857 20.1841 12.3398 18.2883 12.3398Z" fill="#FF8F6B"/>
<path d="M18.2856 33.9527C16.1273 33.9527 13.9543 33.1361 12.2627 31.5173C7.9606 27.3756 3.20643 20.7694 5.00018 12.909C6.61893 5.77773 12.846 2.58398 18.2856 2.58398C18.2856 2.58398 18.2856 2.58398 18.3002 2.58398C23.7398 2.58398 29.9668 5.77773 31.5856 12.9236C33.3648 20.784 28.6106 27.3756 24.3085 31.5173C22.6168 33.1361 20.4439 33.9527 18.2856 33.9527ZM18.2856 4.77148C14.0418 4.77148 8.58768 7.0319 7.14393 13.3902C5.56893 20.259 9.8856 26.1798 13.7939 29.9277C16.3168 32.3631 20.2689 32.3631 22.7918 29.9277C26.6856 26.1798 31.0023 20.259 29.4564 13.3902C27.9981 7.0319 22.5293 4.77148 18.2856 4.77148Z" fill="#FF8F6B"/>
</svg>
