<svg
      width="45"
      height="45"
      viewBox="0 0 45 45"
      fill="none"
      xmlns="http://www.w3.org/2000/svg"
    >
      <path
        d="M29.5288 44.9944H29.2441C19.5179 44.9944 14.8301 41.1609 14.0196 32.5738C13.932 31.6757 14.5891 30.8652 15.5092 30.7775C16.3854 30.6899 17.2178 31.369 17.3055 32.2671C17.9407 39.1455 21.1828 41.7085 29.266 41.7085H29.5508C38.4664 41.7085 41.6208 38.5541 41.6208 29.6384V15.3559C41.6208 6.44028 38.4664 3.28586 29.5508 3.28586H29.266C21.139 3.28586 17.8969 5.89264 17.3055 12.9025C17.1959 13.8006 16.4292 14.4797 15.5092 14.3921C14.5891 14.3263 13.932 13.5158 13.9977 12.6177C14.7425 3.89922 19.4522 0 29.2441 0H29.5288C40.2846 0 44.8848 4.6002 44.8848 15.3559V29.6384C44.8848 40.3941 40.2846 44.9944 29.5288 44.9944Z"
        fill="#FD5454"
      />
      <path
        d="M29.0033 24.1394H4.07457C3.17644 24.1394 2.43164 23.3946 2.43164 22.4964C2.43164 21.5983 3.17644 20.8535 4.07457 20.8535H29.0033C29.9014 20.8535 30.6462 21.5983 30.6462 22.4964C30.6462 23.3946 29.9014 24.1394 29.0033 24.1394Z"
        fill="#FD5454"
      />
      <path
        d="M8.97587 31.4792C8.55966 31.4792 8.14345 31.3258 7.81487 30.9973L0.476449 23.6588C-0.158816 23.0236 -0.158816 21.9721 0.476449 21.3368L7.81487 13.9984C8.45013 13.3632 9.50161 13.3632 10.1369 13.9984C10.7721 14.6337 10.7721 15.6852 10.1369 16.3204L3.95946 22.4978L10.1369 28.6753C10.7721 29.3105 10.7721 30.362 10.1369 30.9973C9.83019 31.3258 9.39208 31.4792 8.97587 31.4792Z"
        fill="#FD5454"
      />
    </svg>