<svg width="7" height="7" viewBox="0 0 7 7" fill="none" xmlns="http://www.w3.org/2000/svg">
<path d="M2.09233 5.43451C2.06932 5.43451 2.04631 5.43163 2.02329 5.42875C1.85067 5.40574 1.70395 5.29641 1.63202 5.14106L1.26952 4.34413C0.69413 3.91834 0.363281 3.28254 0.363281 2.59207C0.363281 1.36361 1.42776 0.362427 2.73678 0.362427C3.66028 0.362427 4.50323 0.868769 4.88587 1.65418C5.03259 1.94475 5.11027 2.26122 5.11027 2.59207C5.11027 3.78889 4.10046 4.76993 2.84035 4.81884L2.47785 5.25614C2.38003 5.36834 2.23906 5.43451 2.09233 5.43451ZM2.73678 0.791091C1.66655 0.791091 0.794826 1.59664 0.794826 2.58919C0.794826 3.15595 1.07677 3.67956 1.56585 4.02479C1.5975 4.04781 1.62339 4.07658 1.63777 4.1111L2.02329 4.95981C2.03767 4.99145 2.06644 5.00009 2.08083 5.00009C2.09521 5.00297 2.12398 5.00008 2.14412 4.97707L2.56991 4.46498C2.61019 4.41607 2.67061 4.38729 2.73678 4.38729C3.80701 4.38729 4.67873 3.58175 4.67873 2.58919C4.67873 2.32739 4.61831 2.07709 4.50036 1.84405C4.18964 1.20249 3.49629 0.791091 2.73678 0.791091Z" fill="#292D32"/>
<path d="M4.81843 6.54501C4.66883 6.54501 4.53073 6.47884 4.43292 6.36376L4.07042 5.92934C3.3742 5.90057 2.71825 5.58122 2.29821 5.06337C2.23204 4.98282 2.23492 4.86775 2.30109 4.79007L2.56865 4.46786C2.60892 4.41895 2.66934 4.39017 2.73551 4.39017C3.80574 4.39017 4.67746 3.58462 4.67746 2.59207C4.67746 2.33027 4.61705 2.07996 4.49909 1.84693C4.46169 1.77213 4.47032 1.68295 4.52211 1.61678C4.57389 1.55061 4.6602 1.52183 4.74075 1.53909C5.80523 1.78363 6.54749 2.67262 6.54749 3.70257C6.54749 4.39305 6.21664 5.02886 5.64124 5.45465L5.27874 6.25156C5.20394 6.41267 5.05722 6.522 4.88173 6.54213C4.86159 6.54501 4.83857 6.54501 4.81843 6.54501ZM2.75277 4.91952C3.11239 5.2849 3.63025 5.4978 4.17399 5.4978C4.23729 5.4978 4.2977 5.52657 4.34086 5.57548L4.76665 6.08757C4.78678 6.11346 4.81268 6.11635 4.82994 6.11347C4.84145 6.11347 4.8731 6.10483 4.89036 6.07031L5.27587 5.22162C5.29313 5.1871 5.31615 5.15543 5.34779 5.1353C5.83688 4.79006 6.11882 4.26646 6.11882 3.69969C6.11882 3.00922 5.69591 2.39644 5.05147 2.09436C5.09174 2.25547 5.11188 2.41945 5.11188 2.58919C5.11188 3.78601 4.10207 4.76705 2.84196 4.81596L2.75277 4.91952Z" fill="#292D32"/>
<path d="M3.45894 2.80484H2.02046C1.9025 2.80484 1.80469 2.70702 1.80469 2.58906C1.80469 2.47111 1.9025 2.37329 2.02046 2.37329H3.45894C3.5769 2.37329 3.67471 2.47111 3.67471 2.58906C3.67471 2.70702 3.5769 2.80484 3.45894 2.80484Z" fill="#292D32"/>
</svg>

