<svg
          width="17"
          height="16"
          viewBox="0 0 17 16"
          fill="none"
          xmlns="http://www.w3.org/2000/svg"
        >
          <g opacity="0.3">
            <path
              d="M13.0771 9.91651C12.5575 9.80473 12.1464 10.046 11.7824 10.2567C11.4097 10.4738 10.7008 11.0488 10.2946 10.9016C8.21441 10.0452 6.25799 8.2245 5.41109 6.13602C5.26182 5.72105 5.83414 5.00774 6.04966 4.63057C6.25879 4.26547 6.49506 3.85051 6.3873 3.32698C6.28992 2.85653 5.03034 1.25378 4.58494 0.815492C4.29119 0.525984 3.99027 0.366754 3.68136 0.34102C2.51996 0.29116 1.22286 1.84084 0.995374 2.21157C0.42545 3.00209 0.428643 4.05397 1.00495 5.32941C2.39384 8.75526 7.64688 13.9254 11.0856 15.3665C11.7202 15.6633 12.3005 15.812 12.8217 15.812C13.3318 15.812 13.7859 15.6697 14.1763 15.3874C14.4708 15.2177 16.084 13.8562 16.0417 12.6636C16.0161 12.3596 15.8573 12.0557 15.5715 11.7613C15.1365 11.3118 13.5441 10.0146 13.0771 9.91651Z"
              fill="#030229"
            />
          </g>
        </svg>