<svg width="7" height="7" viewBox="0 0 7 7" fill="none" xmlns="http://www.w3.org/2000/svg">
<path d="M2.06602 6.54563C1.38131 6.54563 0.820312 6.04792 0.820312 5.43513V4.84822C0.820312 4.73026 0.918129 4.63245 1.03608 4.63245C1.15404 4.63245 1.25186 4.73026 1.25186 4.84822C1.25186 5.20784 1.59996 5.47827 2.06602 5.47827C2.53209 5.47827 2.88021 5.20784 2.88021 4.84822C2.88021 4.73026 2.97803 4.63245 3.09598 4.63245C3.21394 4.63245 3.31175 4.73026 3.31175 4.84822V5.43513C3.31175 6.04792 2.75362 6.54563 2.06602 6.54563ZM1.32664 5.71707C1.45323 5.95298 1.73805 6.11409 2.06602 6.11409C2.394 6.11409 2.67882 5.9501 2.80541 5.71707C2.60114 5.84078 2.34797 5.9127 2.06602 5.9127C1.78408 5.9127 1.53091 5.84078 1.32664 5.71707Z" fill="#292D32"/>
<path d="M2.06602 5.12138C1.5942 5.12138 1.1713 4.90561 0.961281 4.56325C0.869218 4.41365 0.820312 4.23815 0.820312 4.05978C0.820312 3.7577 0.952649 3.47575 1.19431 3.26573C1.66038 2.85721 2.46305 2.85722 2.93199 3.26287C3.17366 3.47577 3.30887 3.7577 3.30887 4.05978C3.30887 4.23815 3.25997 4.41365 3.16791 4.56325C2.96077 4.90561 2.53785 5.12138 2.06602 5.12138ZM2.06602 3.38082C1.84162 3.38082 1.63449 3.45562 1.47913 3.59083C1.33241 3.71742 1.25186 3.88428 1.25186 4.05978C1.25186 4.16047 1.27774 4.25254 1.32952 4.33885C1.46186 4.5575 1.7438 4.69271 2.06602 4.69271C2.38824 4.69271 2.67018 4.55751 2.79965 4.34173C2.85143 4.2583 2.87733 4.16335 2.87733 4.06266C2.87733 3.88716 2.79678 3.7203 2.65006 3.59083C2.49758 3.45562 2.29043 3.38082 2.06602 3.38082Z" fill="#292D32"/>
<path d="M2.06602 5.91249C1.35541 5.91249 0.820312 5.45505 0.820312 4.85089V4.05972C0.820312 3.44693 1.37843 2.94922 2.06602 2.94922C2.39112 2.94922 2.70184 3.06143 2.93487 3.26282C3.17654 3.47571 3.31175 3.75764 3.31175 4.05972V4.85089C3.31175 5.45505 2.77663 5.91249 2.06602 5.91249ZM2.06602 3.38076C1.61722 3.38076 1.25186 3.68572 1.25186 4.05972V4.85089C1.25186 5.21051 1.59996 5.48094 2.06602 5.48094C2.53209 5.48094 2.88021 5.21051 2.88021 4.85089V4.05972C2.88021 3.88423 2.79966 3.71736 2.65294 3.5879C2.49758 3.45556 2.29043 3.38076 2.06602 3.38076Z" fill="#292D32"/>
<path d="M5.48147 4.25819C5.04705 4.25819 4.67881 3.93597 4.64429 3.52169C4.62127 3.2829 4.70758 3.04987 4.8802 2.88013C5.02405 2.73053 5.2283 2.64709 5.44407 2.64709H6.04537C6.33019 2.65573 6.54883 2.88012 6.54883 3.15631V3.74898C6.54883 4.02516 6.33019 4.24956 6.05401 4.25819H5.48147ZM6.03673 3.07864H5.44695C5.34626 3.07864 5.25421 3.11604 5.18804 3.18509C5.1046 3.26564 5.06432 3.37496 5.07583 3.48428C5.09022 3.67416 5.27433 3.82664 5.48147 3.82664H6.04537C6.08277 3.82664 6.11729 3.79213 6.11729 3.74898V3.15631C6.11729 3.11315 6.08276 3.08152 6.03673 3.07864Z" fill="#292D32"/>
<path d="M4.60577 6.11401H3.88653C3.76858 6.11401 3.67076 6.01619 3.67076 5.89823C3.67076 5.78028 3.76858 5.68246 3.88653 5.68246H4.60577C5.34803 5.68246 5.82848 5.20201 5.82848 4.45975V4.25836H5.48037C5.04594 4.25836 4.6777 3.93614 4.64318 3.52186C4.62016 3.28307 4.70647 3.05004 4.87909 2.8803C5.02294 2.7307 5.22719 2.64727 5.44296 2.64727H5.8256V2.44588C5.8256 1.77267 5.43147 1.30947 4.79278 1.23467C4.72374 1.22316 4.66331 1.22317 4.60289 1.22317H2.01363C1.94458 1.22317 1.87841 1.22892 1.81224 1.23755C1.17931 1.31811 0.790919 1.77842 0.790919 2.44588V3.02127C0.790919 3.13923 0.693103 3.23704 0.575147 3.23704C0.457192 3.23704 0.359375 3.13923 0.359375 3.02127V2.44588C0.359375 1.55978 0.906008 0.918214 1.75471 0.811767C1.83239 0.800259 1.92157 0.791626 2.01363 0.791626H4.60289C4.67194 0.791626 4.76113 0.794502 4.85319 0.808887C5.70189 0.906704 6.25715 1.55114 6.25715 2.44588V2.86304C6.25715 2.981 6.15933 3.07881 6.04138 3.07881H5.44296C5.34227 3.07881 5.25022 3.11621 5.18405 3.18526C5.10062 3.26582 5.06033 3.37513 5.07184 3.48446C5.08623 3.67434 5.27036 3.82682 5.4775 3.82682H6.04426C6.16221 3.82682 6.26003 3.92463 6.26003 4.04259V4.45975C6.26003 5.44943 5.59545 6.11401 4.60577 6.11401Z" fill="#292D32"/>
</svg>
