<svg width="7" height="7" viewBox="0 0 7 7" fill="none" xmlns="http://www.w3.org/2000/svg">
<path d="M3.4485 3.82597C3.4111 3.82597 3.37369 3.81735 3.33917 3.79721L0.798817 2.32709C0.695246 2.26667 0.660717 2.13432 0.721133 2.03075C0.78155 1.92718 0.911013 1.89265 1.01746 1.95307L3.4485 3.35991L5.86514 1.96171C5.96871 1.90129 6.10105 1.9387 6.16147 2.03939C6.22189 2.14296 6.18449 2.27529 6.0838 2.33571L3.5607 3.79721C3.5233 3.81447 3.4859 3.82597 3.4485 3.82597Z" fill="#292D32"/>
<path d="M3.45015 6.43243C3.33219 6.43243 3.23438 6.33461 3.23438 6.21666V3.60725C3.23438 3.4893 3.33219 3.39148 3.45015 3.39148C3.5681 3.39148 3.66592 3.4893 3.66592 3.60725V6.21666C3.66592 6.33461 3.5681 6.43243 3.45015 6.43243Z" fill="#292D32"/>
<path d="M3.44928 6.54472C3.19611 6.54472 2.94581 6.49006 2.7473 6.38073L1.211 5.52628C0.793843 5.29612 0.46875 4.74087 0.46875 4.26329V2.6378C0.46875 2.16022 0.793843 1.60786 1.211 1.37483L2.7473 0.52324C3.14144 0.304591 3.75711 0.304591 4.15126 0.52324L5.68756 1.37769C6.10472 1.60785 6.42981 2.1631 6.42981 2.64068V4.26617C6.42981 4.74375 6.10472 5.29611 5.68756 5.52914L4.15126 6.38073C3.95275 6.49006 3.70245 6.54472 3.44928 6.54472ZM3.44928 0.790795C3.26803 0.790795 3.08966 0.828197 2.95732 0.900121L1.42102 1.75457C1.14484 1.90993 0.900294 2.32134 0.900294 2.64068V4.26617C0.900294 4.58264 1.14484 4.99691 1.42102 5.15226L2.95732 6.00673C3.21912 6.15345 3.67943 6.15345 3.94124 6.00673L5.47753 5.15226C5.75372 4.99691 5.99826 4.58551 5.99826 4.26617V2.64068C5.99826 2.32421 5.75372 1.90993 5.47753 1.75457L3.94124 0.900121C3.8089 0.828197 3.63053 0.790795 3.44928 0.790795Z" fill="#292D32"/>
<path d="M4.88838 4.02456C4.77042 4.02456 4.67261 3.92674 4.67261 3.80879V2.88241L2.04882 1.36913C1.94525 1.30871 1.91072 1.17637 1.97113 1.07567C2.03155 0.972102 2.16102 0.937573 2.26459 0.997989L4.99482 2.57458C5.06099 2.61198 5.10415 2.68389 5.10415 2.76157V3.81455C5.10415 3.92675 5.00633 4.02456 4.88838 4.02456Z" fill="#292D32"/>
</svg>
