<svg width="7" height="7" viewBox="0 0 7 7" fill="none" xmlns="http://www.w3.org/2000/svg">
<path d="M4.88668 5.9695H2.00972C0.740982 5.9695 0.355469 5.58399 0.355469 4.31525V4.1714C0.355469 4.05344 0.453285 3.95563 0.571241 3.95563C0.847429 3.95563 1.07471 3.72835 1.07471 3.45216C1.07471 3.17597 0.847429 2.94869 0.571241 2.94869C0.453285 2.94869 0.355469 2.85087 0.355469 2.73292V2.58907C0.355469 1.32033 0.740982 0.934814 2.00972 0.934814H4.88668C6.15543 0.934814 6.54094 1.32033 6.54094 2.58907V2.87676C6.54094 2.99472 6.44312 3.09254 6.32517 3.09254C6.04898 3.09254 5.8217 3.31982 5.8217 3.596C5.8217 3.87219 6.04898 4.09947 6.32517 4.09947C6.44312 4.09947 6.54094 4.19729 6.54094 4.31525C6.54094 5.58399 6.15543 5.9695 4.88668 5.9695ZM0.787013 4.36128C0.792767 5.35095 0.997031 5.53795 2.00972 5.53795H4.88668C5.84759 5.53795 6.08062 5.36821 6.10652 4.50513C5.69511 4.40731 5.39015 4.03618 5.39015 3.596C5.39015 3.15583 5.69799 2.7847 6.10939 2.68688V2.58907C6.10939 1.56199 5.91376 1.36636 4.88668 1.36636H2.00972C0.997031 1.36636 0.792767 1.55336 0.787013 2.54304C1.19842 2.64085 1.50625 3.01198 1.50625 3.45216C1.50625 3.89233 1.19842 4.26346 0.787013 4.36128Z" fill="#292D32"/>
<path d="M4.3101 4.56843C4.14899 4.56843 4.01953 4.43897 4.01953 4.28074C4.01953 4.12251 4.14899 3.99304 4.30723 3.99304C4.46546 3.99304 4.59492 4.12251 4.59492 4.28074C4.59492 4.43897 4.47121 4.56843 4.3101 4.56843Z" fill="#292D32"/>
<path d="M2.58354 3.12984C2.42243 3.12984 2.29297 3.00037 2.29297 2.84214C2.29297 2.68391 2.42243 2.55444 2.58067 2.55444C2.7389 2.55444 2.86836 2.68391 2.86836 2.84214C2.86836 3.00037 2.74465 3.12984 2.58354 3.12984Z" fill="#292D32"/>
<path d="M2.48068 4.72652C2.42602 4.72652 2.37135 4.70638 2.3282 4.66322C2.24477 4.57979 2.24477 4.4417 2.3282 4.35827L4.26439 2.42207C4.34783 2.33864 4.48592 2.33864 4.56935 2.42207C4.65278 2.5055 4.65278 2.6436 4.56935 2.72703L2.63316 4.66322C2.59288 4.70638 2.53534 4.72652 2.48068 4.72652Z" fill="#292D32"/>
</svg>
