<svg width="64" height="64" viewBox="0 0 64 64" fill="none" xmlns="http://www.w3.org/2000/svg">
<g clip-path="url(#clip0_2_1701)">
<path d="M61.8125 32C61.8125 49.1554 49.1554 62.9375 32 62.9375C30.9452 62.9375 29.9027 63.0099 28.8749 62.9073C13.1871 61.34 0.9375 48.1005 0.9375 32C0.9375 15.9169 13.1606 2.68863 28.824 1.09788C29.8682 0.991884 30.9277 1.06251 32 1.06251C49.1554 1.06251 61.8125 14.8446 61.8125 32Z" fill="#FFF0AF"/>
<path d="M42.5388 37.7665L20.9724 38.5108C20.2396 38.5108 19.6454 39.1049 19.6454 39.8378V39.8953C19.6454 40.7191 18.9603 40.781 19.1057 41.5628C20.1256 47.0503 24.5622 51.3374 30.1249 52.1338C30.7373 52.2214 31.3634 52.1418 32.0001 52.1418C39.2437 52.1418 43.8658 46.3946 43.8658 39.151V39.0935C43.8658 38.3606 43.2717 37.7665 42.5388 37.7665Z" fill="#FD8087"/>
<path d="M42.5387 37.8915H40.0387C40.7716 37.8915 41.3657 38.3606 41.3657 39.0935V39.151C41.3657 45.7579 36.4802 51.2229 30.125 52.1326C30.7375 52.2203 31.3633 52.2666 32 52.2666C38.4198 52.2666 43.7622 47.6543 44.8944 41.5626C45.0396 40.7809 43.8656 39.9748 43.8656 39.1509V39.0934C43.8657 38.3606 43.2716 37.8915 42.5387 37.8915Z" fill="#EE6161"/>
<path d="M42.5388 37.7665H20.2113C19.4784 37.7665 18.8843 38.3606 18.8843 39.0935V39.151C18.8843 39.9749 18.961 40.7808 19.1064 41.5625C23.217 42.6719 27.5388 43.2665 32 43.2665C35.055 43.2665 38.0447 42.9876 40.9458 42.4556C42.2813 42.2108 42.3479 41.9121 43.6437 41.5625C43.789 40.7808 43.8658 39.9749 43.8658 39.151V39.0935C43.8658 38.3606 43.2717 37.7665 42.5388 37.7665Z" fill="#F3F0F3"/>
<path d="M41.3658 39.0935V39.151C41.3658 40.2925 41.2198 41.3998 40.9458 42.4554C42.2813 42.2105 43.5981 41.9123 44.8937 41.5625C45.0391 40.7808 45.1158 39.9749 45.1158 39.151V39.0935C45.1158 38.3606 44.5217 37.7665 43.7888 37.7665H40.0388C40.7717 37.7665 41.3658 38.3606 41.3658 39.0935Z" fill="#E2DEE2"/>
<path d="M32 0.9375C30.9451 0.9375 29.9028 0.990625 28.875 1.09337C44.5627 2.66062 56.8125 15.8995 56.8125 32C56.8125 48.1005 44.5627 61.3394 28.875 62.9066C29.9028 63.0094 30.9451 63.0625 32 63.0625C49.1554 63.0625 63.0625 49.1554 63.0625 32C63.0625 14.8446 49.1554 0.9375 32 0.9375Z" fill="#FFE07D"/>
<path d="M19.6453 30.1156C18.4371 30.1156 17.4578 29.1362 17.4578 27.9281V23.9497C17.4578 22.7416 18.4371 21.7622 19.6453 21.7622C20.8534 21.7622 21.8328 22.7416 21.8328 23.9497V27.9281C21.8328 29.1362 20.8534 30.1156 19.6453 30.1156Z" fill="#685E68"/>
<path d="M44.3547 30.1156C43.1466 30.1156 42.1672 29.1362 42.1672 27.9281V23.9497C42.1672 22.7416 43.1466 21.7622 44.3547 21.7622C45.5629 21.7622 46.5422 22.7416 46.5422 23.9497V27.9281C46.5422 29.1362 45.5629 30.1156 44.3547 30.1156Z" fill="#685E68"/>
<path d="M1.875 32C1.875 23.9533 5.0085 16.3883 10.6984 10.6984C16.3883 5.0085 23.9533 1.875 32 1.875C39.1196 1.875 46.0284 4.4045 51.4538 8.99775C51.849 9.33238 52.4406 9.28312 52.775 8.888C53.1095 8.49275 53.0604 7.90125 52.6652 7.56675C46.9017 2.68725 39.5628 0 32 0C23.4525 0 15.4165 3.3285 9.3725 9.3725C3.3285 15.4165 0 23.4525 0 32C0 39.5366 2.67075 46.8561 7.52012 52.6102C7.7055 52.8304 7.97063 52.9436 8.2375 52.9436C8.45075 52.9436 8.66525 52.8713 8.84112 52.723C9.237 52.3894 9.2875 51.7979 8.95387 51.402C4.389 45.9854 1.875 39.095 1.875 32Z" fill="black"/>
<path d="M55.6976 10.4956C55.3494 10.1123 54.7566 10.0836 54.3733 10.4318C53.9899 10.7799 53.9614 11.3728 54.3094 11.756C59.3493 17.3068 62.1249 24.4963 62.1249 32C62.1249 40.0468 58.9914 47.6118 53.3016 53.3016C47.6117 58.9915 40.0466 62.125 31.9999 62.125C24.4893 62.125 17.2951 59.345 11.7424 54.2971C11.3593 53.9488 10.7663 53.977 10.4182 54.3601C10.0698 54.7433 10.0981 55.3361 10.4812 55.6845C16.3798 61.0469 24.0219 64 31.9999 64C40.5474 64 48.5833 60.6715 54.6273 54.6274C60.6713 48.5835 63.9999 40.5475 63.9999 32C63.9999 24.0291 61.0514 16.3921 55.6976 10.4956Z" fill="black"/>
<path d="M32 53.2043C39.749 53.2043 46.0533 46.9 46.0533 39.151V39.0935C46.0533 37.8449 45.0374 36.829 43.7888 36.829H20.2113C18.9627 36.829 17.9468 37.8449 17.9468 39.0935V39.151C17.9468 46.9 24.251 53.2043 32 53.2043ZM32 51.3293C26.5759 51.3293 21.9693 47.7644 20.3983 42.8548C24.1875 43.7496 28.0837 44.2041 32 44.2041C35.9167 44.2041 39.8123 43.7499 43.6017 42.855C42.0307 47.7645 37.4242 51.3293 32 51.3293ZM19.8218 39.0935C19.8218 38.8788 19.9965 38.704 20.2113 38.704H43.7888C44.0035 38.704 44.1783 38.8788 44.1783 39.0935V39.151C44.1783 39.7136 44.139 40.2671 44.0649 40.8096C40.1367 41.817 36.0804 42.3291 32.0002 42.3291C27.92 42.3291 23.8633 41.817 19.9354 40.8098C19.8612 40.2673 19.822 39.7136 19.822 39.151V39.0935H19.8218Z" fill="black"/>
<path d="M22.7703 27.9281V23.9497C22.7703 22.2266 21.3684 20.8247 19.6453 20.8247C17.9221 20.8247 16.5203 22.2266 16.5203 23.9497V27.9281C16.5203 29.6512 17.9221 31.0531 19.6453 31.0531C21.3684 31.0531 22.7703 29.6512 22.7703 27.9281ZM18.3953 27.9281V23.9497C18.3953 23.2605 18.956 22.6997 19.6453 22.6997C20.3345 22.6997 20.8953 23.2605 20.8953 23.9497V27.9281C20.8953 28.6174 20.3345 29.1781 19.6453 29.1781C18.956 29.1781 18.3953 28.6174 18.3953 27.9281Z" fill="black"/>
<path d="M47.4797 27.9281V23.9497C47.4797 22.2266 46.0779 20.8247 44.3547 20.8247C42.6316 20.8247 41.2297 22.2266 41.2297 23.9497V27.9281C41.2297 29.6512 42.6316 31.0531 44.3547 31.0531C46.0779 31.0531 47.4797 29.6512 47.4797 27.9281ZM45.6047 27.9281C45.6047 28.6174 45.044 29.1781 44.3547 29.1781C43.6655 29.1781 43.1047 28.6174 43.1047 27.9281V23.9497C43.1047 23.2605 43.6655 22.6997 44.3547 22.6997C45.044 22.6997 45.6047 23.2605 45.6047 23.9497V27.9281Z" fill="black"/>
</g>
<defs>
<clipPath id="clip0_2_1701">
<rect width="64" height="64" fill="white"/>
</clipPath>
</defs>
</svg>
