<svg width="64" height="64" viewBox="0 0 64 64" fill="none" xmlns="http://www.w3.org/2000/svg">
<g clip-path="url(#clip0_2_1710)">
<path d="M61.8125 32C61.8125 49.1554 49.1554 62.9375 32 62.9375C30.9452 62.9375 29.9027 63.0099 28.8749 62.9073C13.1871 61.34 0.9375 48.1005 0.9375 32C0.9375 15.9169 13.1606 2.68863 28.824 1.09788C29.8682 0.991884 30.9277 1.06251 32 1.06251C49.1554 1.06251 61.8125 14.8446 61.8125 32Z" fill="#FFF0AF"/>
<path d="M42.5387 37.7665L20.9723 38.5108C20.2395 38.5108 19.6453 39.1049 19.6453 39.8378V39.8953C19.6453 40.7191 18.9602 40.781 19.1056 41.5628C20.1254 47.0503 24.5621 51.3374 30.1248 52.1338C30.7372 52.2214 31.3633 52.1418 31.9999 52.1418C39.2436 52.1418 43.8657 46.3946 43.8657 39.151V39.0935C43.8657 38.3606 43.2716 37.7665 42.5387 37.7665Z" fill="#FD8087"/>
<path d="M42.5387 37.8915H40.0387C40.7716 37.8915 41.3657 38.3606 41.3657 39.0935V39.151C41.3657 45.7579 36.4802 51.2229 30.125 52.1326C30.7375 52.2203 31.3633 52.2666 32 52.2666C38.4198 52.2666 43.7622 47.6543 44.8944 41.5626C45.0396 40.7809 43.8656 39.9748 43.8656 39.1509V39.0934C43.8657 38.3606 43.2716 37.8915 42.5387 37.8915Z" fill="#EE6161"/>
<path d="M42.5388 37.7665H20.2113C19.4784 37.7665 18.8843 38.3606 18.8843 39.0935V39.151C18.8843 39.9749 18.961 40.7808 19.1064 41.5625C23.217 42.6719 27.5388 43.2665 32 43.2665C35.055 43.2665 38.0447 42.9876 40.9458 42.4556C42.2813 42.2108 42.3479 41.9121 43.6437 41.5625C43.789 40.7808 43.8658 39.9749 43.8658 39.151V39.0935C43.8658 38.3606 43.2717 37.7665 42.5388 37.7665Z" fill="#F3F0F3"/>
<path d="M41.3657 39.0935V39.151C41.3657 40.2925 41.2197 41.3998 40.9457 42.4554C42.2812 42.2105 43.5979 41.9123 44.8936 41.5625C45.0389 40.7808 45.1157 39.9749 45.1157 39.151V39.0935C45.1157 38.3606 44.5216 37.7665 43.7887 37.7665H40.0387C40.7716 37.7665 41.3657 38.3606 41.3657 39.0935Z" fill="#E2DEE2"/>
<path d="M32 0.9375C30.9451 0.9375 29.9028 0.990625 28.875 1.09337C44.5629 2.66062 56.8125 15.8995 56.8125 32C56.8125 48.1005 44.5629 61.3394 28.875 62.9066C29.9028 63.0094 30.9451 63.0625 32 63.0625C49.1554 63.0625 63.0625 49.1554 63.0625 32C63.0625 14.8446 49.1554 0.9375 32 0.9375Z" fill="#FFE07D"/>
<path d="M43.6049 20.6174L42.5068 19.5191C40.7461 17.7586 37.8918 17.7586 36.1311 19.5191C34.3705 21.2797 34.3705 24.1341 36.1311 25.8947L42.3819 32.1455L43.6049 33.2682C44.019 33.6824 44.6904 33.6824 45.1045 33.2682L52.2775 25.8947C54.0381 24.1341 54.0381 21.2797 52.2775 19.5191C51.3613 18.6029 50.4496 18.1635 49.2494 18.2009C48.1431 18.2354 47.0471 18.6747 46.2029 19.5191L45.1046 20.6174C44.6904 21.0315 44.0189 21.0315 43.6049 20.6174Z" fill="#FD8087"/>
<path d="M52.5782 19.5192C51.662 18.603 50.4496 18.1649 49.2492 18.2022C49.3768 18.3047 49.5006 18.4145 49.619 18.5329C51.3796 20.2935 51.3796 23.1479 49.619 24.9085L42.3818 32.1456L43.6048 33.3686C44.019 33.7827 44.6903 33.7827 45.1045 33.3686L52.5782 25.8949C54.3387 24.1342 54.3387 21.2797 52.5782 19.5192Z" fill="#EE6161"/>
<path d="M18.8956 20.6174L17.7974 19.5191C16.0368 17.7586 13.1824 17.7586 11.4218 19.5191C9.66132 21.2797 9.66132 24.1341 11.4218 25.8947L17.6726 32.1455L18.8956 33.2682C19.3097 33.6824 19.9811 33.6824 20.3952 33.2682L27.5682 25.8947C29.3288 24.1341 29.3288 21.2797 27.5682 19.5191C26.6519 18.6029 25.7403 18.1635 24.5399 18.2009C23.4337 18.2354 22.3377 18.6747 21.4934 19.5191L20.3952 20.6174C19.9809 21.0315 19.3096 21.0315 18.8956 20.6174Z" fill="#FD8087"/>
<path d="M27.869 19.5192C26.9527 18.603 25.7404 18.1649 24.54 18.2022C24.6676 18.3047 24.7914 18.4145 24.9097 18.5329C26.6704 20.2935 26.6704 23.1479 24.9097 24.9085L17.6726 32.1456L18.8956 33.3686C19.3097 33.7827 19.9811 33.7827 20.3952 33.3686L27.869 25.8949C29.6295 24.1342 29.6295 21.2797 27.869 19.5192Z" fill="#EE6161"/>
<path d="M1.875 32C1.875 23.9533 5.0085 16.3883 10.6984 10.6984C16.3883 5.0085 23.9533 1.875 32 1.875C39.1196 1.875 46.0285 4.4045 51.4538 8.99763C51.849 9.33238 52.4406 9.28312 52.775 8.88787C53.1095 8.49275 53.0604 7.90112 52.6652 7.56675C46.9019 2.68725 39.5628 0 32 0C23.4525 0 15.4165 3.32863 9.3725 9.3725C3.3285 15.4165 0 23.4525 0 32C0 39.5365 2.67075 46.856 7.52012 52.6102C7.7055 52.8304 7.97063 52.9436 8.2375 52.9436C8.45075 52.9436 8.66525 52.8713 8.84112 52.723C9.23712 52.3892 9.2875 51.7979 8.95387 51.402C4.389 45.9854 1.875 39.095 1.875 32Z" fill="black"/>
<path d="M55.6976 10.4956C55.3494 10.1124 54.7566 10.0838 54.3733 10.4318C53.9899 10.7798 53.9614 11.3726 54.3094 11.7561C59.3493 17.3069 62.1249 24.4964 62.1249 32C62.1249 40.0468 58.9914 47.6119 53.3016 53.3016C47.6117 58.9915 40.0467 62.125 31.9999 62.125C24.4893 62.125 17.2951 59.345 11.7424 54.2971C11.3593 53.9488 10.7663 53.977 10.4182 54.3603C10.0698 54.7433 10.0981 55.3364 10.4812 55.6846C16.3798 61.0469 24.0219 64 31.9999 64C40.5474 64 48.5834 60.6714 54.6273 54.6275C60.6713 48.5835 63.9999 40.5475 63.9999 32C63.9999 24.0293 61.0514 16.3923 55.6976 10.4956Z" fill="black"/>
<path d="M32 53.2043C39.749 53.2043 46.0533 46.9 46.0533 39.151V39.0935C46.0533 37.8449 45.0374 36.829 43.7888 36.829H20.2113C18.9627 36.829 17.9468 37.8449 17.9468 39.0935V39.151C17.9468 46.9 24.251 53.2043 32 53.2043ZM32 51.3293C26.5758 51.3293 21.9692 47.7644 20.3983 42.8546C24.1877 43.7495 28.0838 44.2041 32 44.2041C35.9165 44.2041 39.8122 43.7499 43.6017 42.8551C42.0305 47.7645 37.424 51.3293 32 51.3293ZM19.8218 39.0935C19.8218 38.8786 19.9965 38.704 20.2113 38.704H43.7888C44.0035 38.704 44.1783 38.8786 44.1783 39.0935V39.151C44.1783 39.7136 44.139 40.2671 44.0649 40.8098C40.1367 41.8171 36.0804 42.3291 32.0002 42.3291C27.9202 42.3291 23.8634 41.817 19.9354 40.8096C19.8612 40.2671 19.822 39.7135 19.822 39.151V39.0935H19.8218Z" fill="black"/>
<path d="M53.2412 18.8563C51.1179 16.7333 47.663 16.7331 45.5398 18.8564L44.4417 19.9545C44.3937 20.0024 44.3157 20.0024 44.2677 19.9545L43.1695 18.8563C41.0463 16.7333 37.5914 16.7333 35.4682 18.8563C33.3449 20.9795 33.3449 24.4345 35.4682 26.5578L42.9419 34.0314C43.3193 34.4089 43.821 34.6168 44.3547 34.6168C44.8883 34.6168 45.39 34.4089 45.7674 34.0315L53.2412 26.5576C55.3644 24.4345 55.3644 20.9795 53.2412 18.8563ZM51.9153 25.2319L44.4414 32.7058C44.3937 32.7536 44.3155 32.7538 44.2677 32.7056L36.7939 25.2319C35.4018 23.8396 35.4018 21.5744 36.7939 20.1821C37.49 19.486 38.4043 19.1379 39.3188 19.1379C40.233 19.1379 41.1477 19.486 41.8437 20.182L42.9418 21.2803C42.9418 21.2803 42.9418 21.2804 42.9419 21.2804C43.7208 22.0591 44.9883 22.0593 45.7673 21.2803L46.8655 20.1821C48.2577 18.7899 50.523 18.79 51.9153 20.182C53.3075 21.5744 53.3075 23.8396 51.9153 25.2319Z" fill="black"/>
<path d="M19.6453 34.6168C20.1791 34.6168 20.6807 34.4089 21.0579 34.0315L28.5317 26.5576C30.6549 24.4345 30.6549 20.9795 28.5317 18.8563C26.4084 16.7333 22.9536 16.7331 20.8303 18.8564L19.7321 19.9545C19.6842 20.0025 19.6062 20.0023 19.5582 19.9545L18.4601 18.8563C16.3368 16.7333 12.8821 16.7333 10.7587 18.8563C8.63545 20.9795 8.63545 24.4345 10.7587 26.5578L18.2323 34.0314C18.6099 34.4089 19.1117 34.6168 19.6453 34.6168ZM12.0847 20.1821C12.7808 19.486 13.6951 19.1379 14.6096 19.1379C15.5238 19.1379 16.4383 19.486 17.1344 20.182L18.2327 21.2803C18.2327 21.2804 18.2327 21.2804 18.2328 21.2804C19.0118 22.0591 20.2792 22.0593 21.0582 21.2803L22.1564 20.1821C23.5486 18.79 25.8138 18.7899 27.2062 20.182C28.5983 21.5744 28.5983 23.8396 27.2062 25.2318L19.7322 32.7056C19.6844 32.7535 19.6063 32.7535 19.5586 32.7055L12.0848 25.2318C10.6924 23.8396 10.6924 21.5744 12.0847 20.1821Z" fill="black"/>
</g>
<defs>
<clipPath id="clip0_2_1710">
<rect width="64" height="64" fill="white"/>
</clipPath>
</defs>
</svg>
