<svg width="64" height="64" viewBox="0 0 64 64" fill="none" xmlns="http://www.w3.org/2000/svg">
<g clip-path="url(#clip0_2_1716)">
<path d="M61.8125 32C61.8125 49.1554 49.1554 62.9375 32 62.9375C30.9452 62.9375 29.9027 63.0099 28.8749 62.9073C13.1871 61.34 0.9375 48.1005 0.9375 32C0.9375 15.9169 13.1606 2.68863 28.824 1.09788C29.8682 0.991884 30.9277 1.06251 32 1.06251C49.1554 1.06251 61.8125 14.8446 61.8125 32Z" fill="#FFF0AF"/>
<path d="M32 0.9375C30.9451 0.9375 29.9028 0.990625 28.875 1.09337C44.5629 2.66062 56.8125 15.8995 56.8125 32C56.8125 48.1005 44.5629 61.3394 28.875 62.9066C29.9028 63.0094 30.9451 63.0625 32 63.0625C49.1554 63.0625 63.0625 49.1554 63.0625 32C63.0625 14.8446 49.1554 0.9375 32 0.9375Z" fill="#FFE07D"/>
<path d="M19.6453 30.1156C18.4371 30.1156 17.4578 29.1362 17.4578 27.9281V23.9497C17.4578 22.7416 18.4371 21.7622 19.6453 21.7622C20.8534 21.7622 21.8328 22.7416 21.8328 23.9497V27.9281C21.8328 29.1362 20.8534 30.1156 19.6453 30.1156Z" fill="#685E68"/>
<path d="M44.3547 30.1156C43.1466 30.1156 42.1672 29.1362 42.1672 27.9281V23.9497C42.1672 22.7416 43.1466 21.7622 44.3547 21.7622C45.5629 21.7622 46.5422 22.7416 46.5422 23.9497V27.9281C46.5422 29.1362 45.5629 30.1156 44.3547 30.1156Z" fill="#685E68"/>
<path d="M19.6453 31.0531C17.9221 31.0531 16.5203 29.6512 16.5203 27.9281V23.9497C16.5203 22.2266 17.9221 20.8247 19.6453 20.8247C21.3684 20.8247 22.7703 22.2266 22.7703 23.9497V27.9281C22.7703 29.6512 21.3684 31.0531 19.6453 31.0531ZM19.6453 22.6997C18.956 22.6997 18.3953 23.2605 18.3953 23.9497V27.9281C18.3953 28.6174 18.956 29.1781 19.6453 29.1781C20.3345 29.1781 20.8953 28.6174 20.8953 27.9281V23.9497C20.8953 23.2605 20.3345 22.6997 19.6453 22.6997Z" fill="black"/>
<path d="M44.3547 31.0531C42.6316 31.0531 41.2297 29.6512 41.2297 27.9281V23.9497C41.2297 22.2266 42.6316 20.8247 44.3547 20.8247C46.0779 20.8247 47.4797 22.2266 47.4797 23.9497V27.9281C47.4797 29.6512 46.0779 31.0531 44.3547 31.0531ZM44.3547 22.6997C43.6655 22.6997 43.1047 23.2605 43.1047 23.9497V27.9281C43.1047 28.6174 43.6655 29.1781 44.3547 29.1781C45.044 29.1781 45.6047 28.6174 45.6047 27.9281V23.9497C45.6047 23.2605 45.044 22.6997 44.3547 22.6997Z" fill="black"/>
<path d="M8.2375 52.9436C7.97063 52.9436 7.70563 52.8304 7.52012 52.6102C2.67075 46.8561 0 39.5366 0 32C0 23.4525 3.3285 15.4165 9.3725 9.3725C15.4165 3.3285 23.4525 0 32 0C39.5628 0 46.9017 2.68725 52.6654 7.56675C53.0605 7.90125 53.1096 8.49287 52.7751 8.888C52.4406 9.28312 51.8491 9.33238 51.4539 8.99775C46.0285 4.4045 39.1196 1.875 32 1.875C23.9533 1.875 16.3883 5.0085 10.6984 10.6984C5.0085 16.3883 1.875 23.9533 1.875 32C1.875 39.095 4.389 45.9854 8.95387 51.402C9.2875 51.7979 9.23712 52.3892 8.84112 52.723C8.66525 52.8713 8.45075 52.9436 8.2375 52.9436Z" fill="black"/>
<path d="M31.9999 64C24.0219 64 16.3798 61.0469 10.4812 55.6846C10.0981 55.3363 10.0698 54.7434 10.4182 54.3603C10.7663 53.9771 11.3593 53.9489 11.7424 54.2973C17.2951 59.345 24.4893 62.125 31.9999 62.125C40.0467 62.125 47.6117 58.9915 53.3016 53.3016C58.9914 47.6118 62.1249 40.0468 62.1249 32C62.1249 24.4963 59.3493 17.3068 54.3094 11.756C53.9614 11.3728 53.9899 10.7798 54.3733 10.4318C54.7566 10.0836 55.3496 10.1123 55.6976 10.4956C61.0514 16.3921 63.9999 24.0291 63.9999 32C63.9999 40.5475 60.6713 48.5835 54.6274 54.6274C48.5834 60.6715 40.5474 64 31.9999 64Z" fill="black"/>
<path d="M31.9999 47.2094C27.4351 47.2094 22.8703 45.4717 19.3952 41.9966C19.0291 41.6305 19.0291 41.0369 19.3952 40.6709C19.7613 40.3047 20.3549 40.3047 20.7209 40.6709C26.9402 46.8901 37.0597 46.8901 43.2789 40.6709C43.6451 40.3047 44.2387 40.3047 44.6047 40.6709C44.9708 41.037 44.9708 41.6306 44.6047 41.9966C41.1296 45.4717 36.5648 47.2094 31.9999 47.2094Z" fill="black"/>
</g>
<defs>
<clipPath id="clip0_2_1716">
<rect width="64" height="64" fill="white"/>
</clipPath>
</defs>
</svg>
