<svg width="64" height="64" viewBox="0 0 64 64" fill="none" xmlns="http://www.w3.org/2000/svg">
<g clip-path="url(#clip0_2_1704)">
<path d="M61.8125 32C61.8125 49.1554 49.1554 62.9375 32 62.9375C30.9452 62.9375 29.9027 63.0099 28.8749 62.9073C13.1871 61.34 0.9375 48.1005 0.9375 32C0.9375 15.9169 13.1606 2.68863 28.824 1.09788C29.8682 0.991884 30.9277 1.06251 32 1.06251C49.1554 1.06251 61.8125 14.8446 61.8125 32Z" fill="#FD8087"/>
<path d="M32 0.9375C30.9451 0.9375 29.9028 0.990625 28.875 1.09337C44.5629 2.66062 56.8125 15.8995 56.8125 32C56.8125 48.1005 44.5629 61.3394 28.875 62.9066C29.9028 63.0094 30.9451 63.0625 32 63.0625C49.1554 63.0625 63.0625 49.1554 63.0625 32C63.0625 14.8446 49.1554 0.9375 32 0.9375Z" fill="#EE6161"/>
<path d="M19.6454 30.1156C18.4373 30.1156 17.4579 29.1362 17.4579 27.9281V23.9497C17.4579 22.7416 18.4373 21.7622 19.6454 21.7622C20.8535 21.7622 21.8329 22.7416 21.8329 23.9497V27.9281C21.8329 29.1362 20.8535 30.1156 19.6454 30.1156Z" fill="#685E68"/>
<path d="M44.3546 30.1156C43.1465 30.1156 42.1671 29.1362 42.1671 27.9281V23.9497C42.1671 22.7416 43.1465 21.7622 44.3546 21.7622C45.5627 21.7622 46.5421 22.7416 46.5421 23.9497V27.9281C46.5421 29.1362 45.5627 30.1156 44.3546 30.1156Z" fill="#685E68"/>
<path d="M43.9418 47.2451C43.7019 47.2451 43.4619 47.1536 43.2789 46.9705C37.0597 40.7513 26.9402 40.7513 20.7209 46.9705C20.3548 47.3366 19.7612 47.3366 19.3952 46.9705C19.0291 46.6044 19.0291 46.0108 19.3952 45.6448C26.3456 38.6944 37.6544 38.6944 44.6048 45.6448C44.9709 46.0109 44.9709 46.6045 44.6048 46.9705C44.4217 47.1535 44.1818 47.2451 43.9418 47.2451Z" fill="black"/>
<path d="M8.2375 52.9436C7.97063 52.9436 7.70563 52.8304 7.52012 52.6102C2.67075 46.8561 0 39.5366 0 32C0 23.4525 3.3285 15.4165 9.3725 9.3725C15.4165 3.3285 23.4525 0 32 0C39.5628 0 46.9017 2.68725 52.6654 7.56675C53.0605 7.90125 53.1096 8.49287 52.7751 8.888C52.4406 9.28312 51.8491 9.33225 51.4539 8.99775C46.0285 4.4045 39.1196 1.875 32 1.875C23.9533 1.875 16.3883 5.0085 10.6984 10.6984C5.0085 16.3883 1.875 23.9533 1.875 32C1.875 39.095 4.389 45.9854 8.95387 51.402C9.2875 51.7979 9.23712 52.3892 8.84112 52.723C8.66525 52.8713 8.45075 52.9436 8.2375 52.9436Z" fill="black"/>
<path d="M31.9999 64C24.0219 64 16.3798 61.0469 10.4812 55.6846C10.0981 55.3363 10.0698 54.7434 10.4182 54.3603C10.7663 53.9771 11.3593 53.9488 11.7424 54.2973C17.2951 59.345 24.4893 62.125 31.9999 62.125C40.0467 62.125 47.6117 58.9915 53.3016 53.3016C58.9914 47.6118 62.1249 40.0468 62.1249 32C62.1249 24.4963 59.3493 17.3068 54.3094 11.756C53.9614 11.3728 53.9899 10.7798 54.3733 10.4318C54.7566 10.0836 55.3496 10.1123 55.6976 10.4956C61.0514 16.3921 63.9999 24.0291 63.9999 32C63.9999 40.5475 60.6713 48.5835 54.6274 54.6274C48.5834 60.6715 40.5474 64 31.9999 64Z" fill="black"/>
<path d="M22.4573 19.5916C22.333 19.5916 22.2067 19.5668 22.0852 19.5141L16.1368 16.9381C15.6617 16.7324 15.4433 16.1804 15.6491 15.7053C15.8548 15.2301 16.4066 15.0118 16.882 15.2175L22.8303 17.7935C23.3055 17.9993 23.5238 18.5513 23.3181 19.0264C23.165 19.3803 22.8198 19.5916 22.4573 19.5916Z" fill="black"/>
<path d="M41.5427 19.5916C41.1802 19.5916 40.8351 19.3803 40.6819 19.0265C40.4762 18.5514 40.6946 17.9994 41.1697 17.7936L47.1181 15.2176C47.5932 15.0119 48.1451 15.2303 48.3509 15.7054C48.5567 16.1805 48.3383 16.7325 47.8632 16.9383L41.9148 19.5143C41.7934 19.5668 41.6669 19.5916 41.5427 19.5916Z" fill="black"/>
<path d="M19.6454 31.0531C17.9223 31.0531 16.5204 29.6512 16.5204 27.9281V23.9497C16.5204 22.2266 17.9223 20.8247 19.6454 20.8247C21.3685 20.8247 22.7704 22.2266 22.7704 23.9497V27.9281C22.7704 29.6512 21.3685 31.0531 19.6454 31.0531ZM19.6454 22.6997C18.9561 22.6997 18.3954 23.2605 18.3954 23.9497V27.9281C18.3954 28.6174 18.9561 29.1781 19.6454 29.1781C20.3346 29.1781 20.8954 28.6174 20.8954 27.9281V23.9497C20.8954 23.2605 20.3346 22.6997 19.6454 22.6997Z" fill="black"/>
<path d="M44.3546 31.0531C42.6315 31.0531 41.2296 29.6512 41.2296 27.9281V23.9497C41.2296 22.2266 42.6315 20.8247 44.3546 20.8247C46.0777 20.8247 47.4796 22.2266 47.4796 23.9497V27.9281C47.4796 29.6512 46.0777 31.0531 44.3546 31.0531ZM44.3546 22.6997C43.6654 22.6997 43.1046 23.2605 43.1046 23.9497V27.9281C43.1046 28.6174 43.6654 29.1781 44.3546 29.1781C45.0439 29.1781 45.6046 28.6174 45.6046 27.9281V23.9497C45.6046 23.2605 45.0439 22.6997 44.3546 22.6997Z" fill="black"/>
</g>
<defs>
<clipPath id="clip0_2_1704">
<rect width="64" height="64" fill="white"/>
</clipPath>
</defs>
</svg>
