<svg width="64" height="64" viewBox="0 0 64 64" fill="none" xmlns="http://www.w3.org/2000/svg">
<g clip-path="url(#clip0_2_1686)">
<path d="M61.8125 32C61.8125 49.1554 49.1554 62.9375 32 62.9375C30.9452 62.9375 29.9027 63.0099 28.8749 62.9072C13.1871 61.34 0.9375 48.1005 0.9375 32C0.9375 15.9169 13.1606 2.68862 28.824 1.09787C29.8682 0.991869 30.9277 1.06249 32 1.06249C49.1554 1.06249 61.8125 14.8446 61.8125 32Z" fill="#8AC9FE"/>
<path d="M32 0.9375C30.9451 0.9375 29.9028 0.990625 28.875 1.09337C44.5629 2.66062 56.8125 15.8995 56.8125 32C56.8125 48.1005 44.5629 61.3394 28.875 62.9066C29.9028 63.0094 30.9451 63.0625 32 63.0625C49.1554 63.0625 63.0625 49.1554 63.0625 32C63.0625 14.8446 49.1554 0.9375 32 0.9375Z" fill="#60B7FF"/>
<path d="M8.2375 52.9436C7.97063 52.9436 7.70563 52.8304 7.52012 52.6102C2.67075 46.8561 0 39.5366 0 32C0 23.4525 3.32863 15.4165 9.3725 9.3725C15.4165 3.32863 23.4525 0 32 0C39.5628 0 46.9019 2.68725 52.6652 7.56675C53.0605 7.90125 53.1096 8.49275 52.775 8.88787C52.4404 9.28312 51.849 9.33225 51.4539 8.99763C46.0285 4.4045 39.1198 1.875 32 1.875C23.9533 1.875 16.3881 5.0085 10.6984 10.6984C5.0085 16.3881 1.875 23.9533 1.875 32C1.875 39.095 4.389 45.9855 8.954 51.402C9.28763 51.7979 9.23725 52.3892 8.84125 52.723C8.66538 52.8713 8.45075 52.9436 8.2375 52.9436Z" fill="black"/>
<path d="M32 64C24.022 64 16.3797 61.0469 10.4812 55.6846C10.0981 55.3364 10.0698 54.7434 10.4181 54.3603C10.7666 53.9771 11.3593 53.9489 11.7425 54.2971C17.2951 59.345 24.4895 62.125 32 62.125C40.0467 62.125 47.6118 58.9915 53.3016 53.3016C58.9915 47.6119 62.125 40.0468 62.125 32C62.125 24.4964 59.3493 17.3069 54.3095 11.7561C53.9615 11.3728 53.99 10.7798 54.3733 10.4318C54.7566 10.0839 55.3496 10.1123 55.6977 10.4956C61.0515 16.3923 64 24.0293 64 32C64 40.5475 60.6713 48.5835 54.6275 54.6275C48.5835 60.6714 40.5475 64 32 64Z" fill="black"/>
<path d="M17.3025 35.8329C16.9785 35.8329 16.6634 35.6647 16.4898 35.364C16.2309 34.9156 16.3845 34.3422 16.8329 34.0834L20.1141 32.189L16.8329 30.2946C16.3845 30.0357 16.2309 29.4624 16.4898 29.014C16.7485 28.5655 17.3218 28.412 17.7704 28.6709L22.4579 31.3771C22.7479 31.5446 22.9266 31.854 22.9266 32.189C22.9266 32.524 22.7479 32.8334 22.4579 33.0009L17.7704 35.7071C17.6228 35.7924 17.4615 35.8329 17.3025 35.8329Z" fill="black"/>
<path d="M46.6975 35.8329C46.5384 35.8329 46.3772 35.7924 46.2296 35.7071L41.5421 33.0009C41.2521 32.8334 41.0734 32.524 41.0734 32.189C41.0734 31.854 41.2521 31.5446 41.5421 31.3771L46.2296 28.6709C46.6779 28.4121 47.2515 28.5655 47.5102 29.014C47.7691 29.4624 47.6155 30.0358 47.1671 30.2946L43.8859 32.189L47.1671 34.0834C47.6155 34.3423 47.7691 34.9156 47.5102 35.364C47.3366 35.6648 47.0215 35.8329 46.6975 35.8329Z" fill="black"/>
<path d="M41.2522 49.7986C39.6858 49.7986 38.8563 48.9023 38.2507 48.2479C37.6736 47.6241 37.3391 47.2986 36.6255 47.2986C35.912 47.2986 35.5776 47.624 35.0005 48.2479C34.395 48.9023 33.5656 49.7986 31.9993 49.7986C30.433 49.7986 29.6036 48.9023 28.998 48.2479C28.4208 47.6241 28.0865 47.2986 27.373 47.2986C26.6596 47.2986 26.3252 47.624 25.7481 48.2479C25.1426 48.9023 24.3132 49.7986 22.747 49.7986C21.1807 49.7986 20.3513 48.9023 19.7458 48.2479C19.1687 47.6241 18.8345 47.2986 18.121 47.2986C17.6031 47.2986 17.1835 46.879 17.1835 46.3611C17.1835 45.8433 17.6031 45.4236 18.121 45.4236C19.6872 45.4236 20.5166 46.32 21.1221 46.9744C21.6992 47.5981 22.0336 47.9236 22.747 47.9236C23.4605 47.9236 23.7947 47.5981 24.3718 46.9744C24.9773 46.32 25.8067 45.4236 27.373 45.4236C28.9392 45.4236 29.7686 46.32 30.3742 46.9744C30.9513 47.5981 31.2857 47.9236 31.9993 47.9236C32.7127 47.9236 33.0471 47.5981 33.6242 46.9744C34.2297 46.32 35.0591 45.4236 36.6255 45.4236C38.1918 45.4236 39.0213 46.32 39.627 46.9744C40.2041 47.5981 40.5386 47.9236 41.2522 47.9236C41.9658 47.9236 42.3003 47.5981 42.8775 46.9744C43.4831 46.32 44.3125 45.4236 45.879 45.4236C46.3967 45.4236 46.8165 45.8433 46.8165 46.3611C46.8165 46.879 46.3967 47.2986 45.879 47.2986C45.1653 47.2986 44.8308 47.624 44.2537 48.2479C43.6481 48.9023 42.8186 49.7986 41.2522 49.7986Z" fill="black"/>
<path d="M14.0098 28.3416C13.6475 28.3416 13.3022 28.1302 13.149 27.7765C12.9432 27.3014 13.1617 26.7494 13.6367 26.5436L19.5852 23.9676C20.0607 23.762 20.6125 23.9805 20.8181 24.4554C21.0238 24.9305 20.8053 25.4825 20.3303 25.6882L14.3818 28.2642C14.2606 28.3167 14.1341 28.3416 14.0098 28.3416Z" fill="black"/>
<path d="M49.9902 28.3416C49.8658 28.3416 49.7394 28.3168 49.6181 28.2643L43.6696 25.6883C43.1944 25.4825 42.9761 24.9305 43.1818 24.4554C43.3876 23.9801 43.9396 23.762 44.4147 23.9676L50.3632 26.5436C50.8383 26.7494 51.0567 27.3014 50.8509 27.7765C50.6978 28.1303 50.3526 28.3416 49.9902 28.3416Z" fill="black"/>
</g>
<defs>
<clipPath id="clip0_2_1686">
<rect width="64" height="64" fill="white"/>
</clipPath>
</defs>
</svg>
