<svg width="30" height="31" viewBox="0 0 30 31" fill="none" xmlns="http://www.w3.org/2000/svg">
<path d="M15 28.9355C14.0125 28.9355 13.075 28.4355 12.425 27.548L11.1625 25.8605C10.9 25.5105 10.55 25.3105 10.175 25.2855C9.8 25.2605 9.425 25.4355 9.125 25.748L8.4125 25.123L9.1 25.7605C7.2875 27.6855 5.9125 27.5355 5.25 27.273C4.575 27.0105 3.4375 26.148 3.4375 23.373V9.29805C3.4375 3.74805 5.0375 2.06055 10.275 2.06055H19.7125C24.95 2.06055 26.55 3.74805 26.55 9.29805V23.373C26.55 26.1355 25.4125 26.998 24.7375 27.273C24.075 27.5355 22.7 27.6855 20.8875 25.7605C20.5875 25.4355 20.2 25.273 19.825 25.298C19.45 25.323 19.0875 25.523 18.825 25.873L17.5625 27.5605C16.925 28.4355 15.9875 28.9355 15 28.9355ZM10.1 23.4105C10.15 23.4105 10.2125 23.4105 10.2625 23.4105C11.1875 23.4605 12.0625 23.948 12.65 24.7355L13.925 26.423C14.5375 27.2355 15.475 27.2355 16.0875 26.423L17.35 24.7355C17.9375 23.948 18.8125 23.4605 19.75 23.4105C20.6875 23.3605 21.6 23.748 22.275 24.473C23.225 25.4855 23.8375 25.6105 24.0625 25.523C24.3625 25.398 24.6875 24.673 24.6875 23.373V9.29805C24.6875 4.78555 23.9 3.93555 19.725 3.93555H10.275C6.1 3.93555 5.3125 4.78555 5.3125 9.29805V23.373C5.3125 24.6855 5.6375 25.4105 5.9375 25.523C6.1625 25.6105 6.775 25.4855 7.725 24.473C8.375 23.7855 9.225 23.4105 10.1 23.4105Z" fill="#FFA486"/>
<path d="M18.7402 18.0039C18.0402 18.0039 17.4902 17.4414 17.4902 16.7539C17.4902 16.0664 18.0527 15.5039 18.7402 15.5039C19.4277 15.5039 19.9902 16.0664 19.9902 16.7539C19.9902 17.4414 19.4402 18.0039 18.7402 18.0039Z" fill="#FFA486"/>
<path d="M11.2461 11.75C10.5461 11.75 9.99609 11.1875 9.99609 10.5C9.99609 9.8125 10.5586 9.25 11.2461 9.25C11.9336 9.25 12.4961 9.8125 12.4961 10.5C12.4961 11.1875 11.9461 11.75 11.2461 11.75Z" fill="#FFA486"/>
<path d="M10.7781 18.6848C10.5406 18.6848 10.3031 18.5973 10.1156 18.4098C9.75313 18.0473 9.75313 17.4473 10.1156 17.0848L18.5281 8.67227C18.8906 8.30977 19.4906 8.30977 19.8531 8.67227C20.2156 9.03477 20.2156 9.63477 19.8531 9.99727L11.4406 18.4098C11.2656 18.5973 11.0281 18.6848 10.7781 18.6848Z" fill="#FFA486"/>
</svg>
