<svg width="7" height="7" viewBox="0 0 7 7" fill="none" xmlns="http://www.w3.org/2000/svg">
<path d="M3.44995 4.53114C2.85442 4.53114 2.37109 4.04781 2.37109 3.45227C2.37109 2.85674 2.85442 2.37341 3.44995 2.37341C4.04549 2.37341 4.52882 2.85674 4.52882 3.45227C4.52882 4.04781 4.04549 4.53114 3.44995 4.53114ZM3.44995 2.80496C3.09321 2.80496 2.80264 3.09553 2.80264 3.45227C2.80264 3.80902 3.09321 4.09959 3.44995 4.09959C3.8067 4.09959 4.09727 3.80902 4.09727 3.45227C4.09727 3.09553 3.8067 2.80496 3.44995 2.80496Z" fill="#292D32"/>
<path d="M4.37171 6.38398C4.31129 6.38398 4.25088 6.37534 4.19046 6.36096C4.01209 6.31205 3.86249 6.19985 3.76755 6.04162L3.73302 5.98408C3.56328 5.69063 3.33025 5.69063 3.16051 5.98408L3.12886 6.03874C3.03392 6.19985 2.88432 6.31493 2.70595 6.36096C2.5247 6.40987 2.3377 6.38398 2.17946 6.28904L1.68463 6.00422C1.50913 5.90352 1.38254 5.73954 1.32788 5.54103C1.2761 5.34251 1.30199 5.13825 1.40268 4.96276C1.48612 4.81603 1.50913 4.68369 1.46022 4.60026C1.41131 4.51683 1.2876 4.46792 1.11786 4.46792C0.697827 4.46792 0.355469 4.12556 0.355469 3.70552V3.19918C0.355469 2.77914 0.697827 2.43678 1.11786 2.43678C1.2876 2.43678 1.41131 2.38787 1.46022 2.30444C1.50913 2.22101 1.48899 2.08867 1.40268 1.94195C1.30199 1.76645 1.2761 1.55931 1.32788 1.36368C1.37967 1.16517 1.50625 1.00118 1.68463 0.900485L2.18234 0.615665C2.50744 0.422909 2.9361 0.53511 3.13174 0.865961L3.16626 0.9235C3.336 1.21695 3.56904 1.21695 3.73878 0.9235L3.77042 0.868838C3.96606 0.53511 4.39472 0.422909 4.7227 0.618542L5.21754 0.903362C5.39303 1.00406 5.51962 1.16804 5.57428 1.36655C5.62606 1.56506 5.60017 1.76933 5.49948 1.94482C5.41605 2.09155 5.39303 2.22389 5.44194 2.30732C5.49085 2.39075 5.61456 2.43966 5.7843 2.43966C6.20433 2.43966 6.54669 2.78202 6.54669 3.20205V3.7084C6.54669 4.12844 6.20433 4.4708 5.7843 4.4708C5.61456 4.4708 5.49085 4.5197 5.44194 4.60314C5.39303 4.68657 5.41317 4.81891 5.49948 4.96563C5.60017 5.14113 5.62894 5.34827 5.57428 5.5439C5.52249 5.74241 5.39591 5.9064 5.21754 6.00709L4.71982 6.29191C4.6105 6.35233 4.49254 6.38398 4.37171 6.38398ZM3.4482 5.3195C3.70425 5.3195 3.94304 5.48061 4.10703 5.76543L4.13867 5.82009C4.1732 5.88051 4.23074 5.92366 4.29978 5.94092C4.36883 5.95818 4.43788 5.94955 4.49542 5.91503L4.99313 5.62733C5.06793 5.58418 5.12547 5.51226 5.14849 5.42595C5.1715 5.33964 5.16 5.25045 5.11684 5.17565C4.95286 4.89371 4.93272 4.60314 5.0593 4.38161C5.18589 4.16008 5.44769 4.0335 5.77567 4.0335C5.95979 4.0335 6.10652 3.88677 6.10652 3.70265V3.1963C6.10652 3.01505 5.95979 2.86545 5.77567 2.86545C5.44769 2.86545 5.18589 2.73886 5.0593 2.51734C4.93272 2.29581 4.95286 2.00524 5.11684 1.7233C5.16 1.64849 5.1715 1.55931 5.14849 1.473C5.12547 1.38669 5.07081 1.31764 4.99601 1.27161L4.49829 0.986793C4.37459 0.911992 4.2106 0.955147 4.1358 1.08173L4.10415 1.1364C3.94016 1.42121 3.70138 1.58232 3.44533 1.58232C3.18928 1.58232 2.95049 1.42121 2.7865 1.1364L2.75486 1.07886C2.68293 0.958024 2.52182 0.914869 2.39811 0.986793L1.9004 1.27449C1.8256 1.31764 1.76806 1.38957 1.74504 1.47588C1.72203 1.56219 1.73353 1.65137 1.77669 1.72617C1.94068 2.00812 1.96081 2.29869 1.83423 2.52021C1.70764 2.74174 1.44584 2.86833 1.11786 2.86833C0.933738 2.86833 0.787013 3.01505 0.787013 3.19918V3.70552C0.787013 3.88677 0.933738 4.03637 1.11786 4.03637C1.44584 4.03637 1.70764 4.16296 1.83423 4.38449C1.96081 4.60601 1.94068 4.89659 1.77669 5.17853C1.73353 5.25333 1.72203 5.34251 1.74504 5.42882C1.76806 5.51513 1.82272 5.58418 1.89752 5.63021L2.39524 5.91503C2.45565 5.95243 2.52758 5.96106 2.59375 5.9438C2.66279 5.92654 2.72033 5.88051 2.75773 5.82009L2.78938 5.76543C2.95337 5.48349 3.19215 5.3195 3.4482 5.3195Z" fill="#292D32"/>
</svg>
