<svg width="36" height="35" viewBox="0 0 36 35" fill="none" xmlns="http://www.w3.org/2000/svg">
<path d="M25.7666 30.9889H11.1833C5.86035 30.9889 2.79785 27.9264 2.79785 22.6035V12.3952C2.79785 7.07227 5.86035 4.00977 11.1833 4.00977H25.7666C31.0895 4.00977 34.152 7.07227 34.152 12.3952V22.6035C34.152 27.9264 31.0895 30.9889 25.7666 30.9889ZM11.1833 6.19727C7.01243 6.19727 4.98535 8.22435 4.98535 12.3952V22.6035C4.98535 26.7743 7.01243 28.8014 11.1833 28.8014H25.7666C29.9374 28.8014 31.9645 26.7743 31.9645 22.6035V12.3952C31.9645 8.22435 29.9374 6.19727 25.7666 6.19727H11.1833Z" fill="#FF8F6B"/>
<path d="M18.4743 18.7694C17.2493 18.7694 16.0097 18.3903 15.0618 17.6174L10.4972 13.9715C10.0306 13.5924 9.94308 12.9069 10.3222 12.4403C10.7014 11.9736 11.3868 11.8861 11.8535 12.2653L16.4181 15.9111C17.5264 16.8007 19.4076 16.8007 20.516 15.9111L25.0806 12.2653C25.5472 11.8861 26.2472 11.959 26.6118 12.4403C26.991 12.9069 26.9181 13.6069 26.4368 13.9715L21.8722 17.6174C20.9389 18.3903 19.6993 18.7694 18.4743 18.7694Z" fill="#FF8F6B"/>
</svg>
