<svg width="7" height="7" viewBox="0 0 7 7" fill="none" xmlns="http://www.w3.org/2000/svg">
<path d="M5.1782 2.27537C5.16957 2.27537 5.16382 2.27537 5.15519 2.27537H5.1408C4.59706 2.2581 4.19141 1.83807 4.19141 1.32021C4.19141 0.790851 4.62295 0.362183 5.14944 0.362183C5.67592 0.362183 6.10746 0.793728 6.10746 1.32021C6.10459 1.84094 5.69893 2.26098 5.18108 2.27824C5.18108 2.27536 5.18108 2.27537 5.1782 2.27537ZM5.14944 0.790852C4.85886 0.790852 4.62295 1.02676 4.62295 1.31734C4.62295 1.60216 4.84448 1.83231 5.1293 1.84382C5.13217 1.84094 5.15519 1.84094 5.18108 1.84382C5.46015 1.82944 5.67592 1.59928 5.6788 1.31734C5.6788 1.02676 5.44289 0.790852 5.14944 0.790852Z" fill="#292D32"/>
<path d="M5.18016 4.39578C5.06795 4.39578 4.95575 4.38715 4.84355 4.36701C4.7256 4.34687 4.64792 4.23467 4.66806 4.11672C4.68819 3.99876 4.8004 3.92108 4.91835 3.94122C5.27222 4.00164 5.64622 3.93547 5.89652 3.76861C6.03174 3.67942 6.10366 3.56722 6.10366 3.45501C6.10366 3.34281 6.02886 3.23349 5.89652 3.1443C5.64622 2.97744 5.26646 2.91127 4.90972 2.97456C4.79177 2.99758 4.67956 2.91702 4.65943 2.79907C4.63929 2.68111 4.71696 2.56891 4.83492 2.54877C5.30387 2.46534 5.79007 2.55452 6.13531 2.78468C6.38848 2.95442 6.53521 3.19609 6.53521 3.45501C6.53521 3.71106 6.39136 3.95561 6.13531 4.12823C5.8735 4.30084 5.53402 4.39578 5.18016 4.39578Z" fill="#292D32"/>
<path d="M1.71729 2.27543C1.71442 2.27543 1.71154 2.27543 1.71154 2.27543C1.19369 2.25817 0.788033 1.83813 0.785156 1.32028C0.785156 0.790918 1.2167 0.359375 1.74319 0.359375C2.26967 0.359375 2.70121 0.79092 2.70121 1.3174C2.70121 1.83813 2.29556 2.25817 1.77771 2.27543L1.71729 2.05966L1.73743 2.27543C1.73168 2.27543 1.72305 2.27543 1.71729 2.27543ZM1.74606 1.84389C1.76332 1.84389 1.77771 1.84389 1.79497 1.84676C2.05102 1.83526 2.27542 1.6051 2.27542 1.32028C2.27542 1.02971 2.03951 0.793795 1.74894 0.793795C1.45837 0.793795 1.22245 1.02971 1.22245 1.32028C1.22245 1.60222 1.4411 1.8295 1.72017 1.84676C1.72305 1.84389 1.73455 1.84389 1.74606 1.84389Z" fill="#292D32"/>
<path d="M1.71442 4.39578C1.36056 4.39578 1.02108 4.30084 0.759273 4.12823C0.5061 3.95849 0.359375 3.71394 0.359375 3.45501C0.359375 3.19896 0.5061 2.95442 0.759273 2.78468C1.10451 2.55452 1.59072 2.46534 2.05966 2.54877C2.17762 2.56891 2.25529 2.68111 2.23515 2.79907C2.21502 2.91702 2.10282 2.99758 1.98486 2.97456C1.62812 2.91127 1.25123 2.97744 0.998061 3.1443C0.862844 3.23349 0.790919 3.34281 0.790919 3.45501C0.790919 3.56722 0.865721 3.67942 0.998061 3.76861C1.24836 3.93547 1.62236 4.00164 1.97623 3.94122C2.09418 3.92108 2.20639 4.00164 2.22652 4.11672C2.24666 4.23467 2.16899 4.34687 2.05103 4.36701C1.93883 4.38715 1.82663 4.39578 1.71442 4.39578Z" fill="#292D32"/>
<path d="M3.45164 4.42466C3.44301 4.42466 3.43726 4.42466 3.42863 4.42466H3.41424C2.8705 4.4074 2.46484 3.98736 2.46484 3.4695C2.46484 2.94014 2.89639 2.51147 3.42287 2.51147C3.94936 2.51147 4.3809 2.94302 4.3809 3.4695C4.37802 3.99023 3.97237 4.41027 3.45452 4.42753C3.45452 4.42466 3.45452 4.42466 3.45164 4.42466ZM3.42287 2.94014C3.1323 2.94014 2.89639 3.17606 2.89639 3.46663C2.89639 3.75145 3.11791 3.98161 3.40273 3.99311C3.40561 3.99024 3.42863 3.99024 3.45452 3.99311C3.73358 3.97873 3.94936 3.74857 3.95223 3.46663C3.95223 3.17893 3.71632 2.94014 3.42287 2.94014Z" fill="#292D32"/>
<path d="M3.45168 6.54767C3.10644 6.54767 2.76121 6.45849 2.49365 6.27724C2.24047 6.1075 2.09375 5.86583 2.09375 5.60691C2.09375 5.35086 2.2376 5.10344 2.49365 4.9337C3.03164 4.57695 3.87459 4.57695 4.40971 4.9337C4.66288 5.10344 4.8096 5.3451 4.8096 5.60403C4.8096 5.86008 4.66576 6.1075 4.40971 6.27724C4.14215 6.45561 3.79691 6.54767 3.45168 6.54767ZM2.73244 5.2962C2.59722 5.38538 2.52529 5.49758 2.52529 5.60978C2.52529 5.72198 2.6001 5.83131 2.73244 5.9205C3.12083 6.1823 3.77965 6.1823 4.16804 5.9205C4.30326 5.83131 4.37518 5.71911 4.37518 5.60691C4.37518 5.49471 4.30038 5.38538 4.16804 5.2962C3.78253 5.03439 3.1237 5.03727 2.73244 5.2962Z" fill="#292D32"/>
</svg>

