<svg width="31" height="31" viewBox="0 0 31 31" fill="none" xmlns="http://www.w3.org/2000/svg">
<path d="M17.2285 15.375H9.72852C9.21602 15.375 8.79102 14.95 8.79102 14.4375C8.79102 13.925 9.21602 13.5 9.72852 13.5H17.2285C17.741 13.5 18.166 13.925 18.166 14.4375C18.166 14.95 17.741 15.375 17.2285 15.375Z" fill="#FFA486"/>
<path d="M3.48242 15.3758C2.96992 15.3758 2.54492 14.9508 2.54492 14.4383V8.66328C2.54492 5.60078 5.03243 3.11328 8.09493 3.11328H15.1199C18.3324 3.11328 20.6699 5.25078 20.6699 8.18828C20.6699 8.70078 20.2449 9.12578 19.7324 9.12578C19.2199 9.12578 18.7949 8.70078 18.7949 8.18828C18.7949 5.98828 16.8824 4.98828 15.1199 4.98828H8.09493C6.06993 4.98828 4.41992 6.63828 4.41992 8.66328V14.4383C4.41992 14.9633 3.99492 15.3758 3.48242 15.3758Z" fill="#FFA486"/>
<path d="M20.9824 27.8711H8.48242C5.20742 27.8711 2.54492 25.2086 2.54492 21.9336V13.1836C2.54492 9.90859 5.20742 7.24609 8.48242 7.24609H20.9824C24.2574 7.24609 26.9199 9.90859 26.9199 13.1836V14.996C26.9199 15.5085 26.4949 15.9335 25.9824 15.9335H24.6324C24.1949 15.9335 23.7949 16.096 23.5074 16.396L23.4949 16.4085C23.0824 16.821 22.9199 17.396 23.0699 17.9585C23.2574 18.6585 23.9949 19.1711 24.8199 19.1711H25.9824C26.4949 19.1711 26.9199 19.5961 26.9199 20.1086V21.9211C26.9199 25.2086 24.2574 27.8711 20.9824 27.8711ZM8.48242 9.12109C6.24492 9.12109 4.41992 10.9461 4.41992 13.1836V21.9336C4.41992 24.1711 6.24492 25.9961 8.48242 25.9961H20.9824C23.2199 25.9961 25.0449 24.1711 25.0449 21.9336V21.0586H24.8199C23.1324 21.0586 21.6699 19.9961 21.2574 18.4586C20.9324 17.2461 21.2824 15.9585 22.1699 15.0835C22.8199 14.421 23.6949 14.0585 24.6324 14.0585H25.0449V13.1836C25.0449 10.9461 23.2199 9.12109 20.9824 9.12109H8.48242V9.12109Z" fill="#FFA486"/>
<path d="M27.1948 21.0606H24.7823C22.8948 21.0606 21.2948 19.6606 21.1448 17.8606C21.0448 16.8231 21.4198 15.8105 22.1698 15.073C22.7948 14.423 23.6823 14.0605 24.6198 14.0605H27.1823C28.4073 14.0605 29.4073 15.0481 29.4073 16.2731V18.8481C29.4198 20.0731 28.4198 21.0606 27.1948 21.0606ZM24.6323 15.9355C24.1948 15.9355 23.7948 16.098 23.5073 16.398C23.1448 16.748 22.9698 17.2231 23.0198 17.6981C23.0823 18.5231 23.8823 19.1856 24.7823 19.1856H27.1948C27.3823 19.1856 27.5448 19.0356 27.5448 18.8481V16.2731C27.5448 16.0856 27.3823 15.9355 27.1948 15.9355H24.6323V15.9355Z" fill="#FFA486"/>
</svg>
